<?xml version="1.0" encoding="utf-8" standalone="no"?>
<!DOCTYPE svg PUBLIC "-//W3C//DTD SVG 1.1//EN"
  "http://www.w3.org/Graphics/SVG/1.1/DTD/svg11.dtd">
<svg xmlns:xlink="http://www.w3.org/1999/xlink" width="460.8pt" height="345.6pt" viewBox="0 0 460.8 345.6" xmlns="http://www.w3.org/2000/svg" version="1.1">
 <metadata>
  <rdf:RDF xmlns:dc="http://purl.org/dc/elements/1.1/" xmlns:cc="http://creativecommons.org/ns#" xmlns:rdf="http://www.w3.org/1999/02/22-rdf-syntax-ns#">
   <cc:Work>
    <dc:type rdf:resource="http://purl.org/dc/dcmitype/StillImage"/>
    <dc:date>2022-10-15T15:39:29.361704</dc:date>
    <dc:format>image/svg+xml</dc:format>
    <dc:creator>
     <cc:Agent>
      <dc:title>Matplotlib v3.6.0, https://matplotlib.org/</dc:title>
     </cc:Agent>
    </dc:creator>
   </cc:Work>
  </rdf:RDF>
 </metadata>
 <defs>
  <style type="text/css">*{stroke-linejoin: round; stroke-linecap: butt}</style>
 </defs>
 <g id="figure_1">
  <g id="patch_1">
   <path d="M 0 345.6 
L 460.8 345.6 
L 460.8 0 
L 0 0 
z
" style="fill: #ffffff"/>
  </g>
  <g id="axes_1">
   <g id="patch_2">
    <path d="M 57.6 307.584 
L 414.72 307.584 
L 414.72 41.472 
L 57.6 41.472 
z
" style="fill: #eaeaf2"/>
   </g>
   <g id="matplotlib.axis_1">
    <g id="xtick_1">
     <g id="line2d_1">
      <path d="M 78.380537 307.584 
L 78.380537 41.472 
" clip-path="url(#p8148173c34)" style="fill: none; stroke: #ffffff; stroke-linecap: round"/>
     </g>
     <g id="text_1">
      <!-- $\mathdefault{−1.0}$ -->
      <g style="fill: #262626" transform="translate(67.117195 324.694347) scale(0.11 -0.11)">
       <defs>
        <path id="CMSY10-0" d="M 4218 1472 
C 4326 1472 4442 1472 4442 1600 
C 4442 1728 4326 1728 4218 1728 
L 755 1728 
C 646 1728 531 1728 531 1600 
C 531 1472 646 1472 755 1472 
L 4218 1472 
z
" transform="scale(0.015625)"/>
        <path id="CMR17-31" d="M 1702 4058 
C 1702 4192 1696 4192 1606 4192 
C 1357 3916 979 3827 621 3827 
C 602 3827 570 3827 563 3808 
C 557 3795 557 3782 557 3648 
C 755 3648 1088 3686 1344 3839 
L 1344 461 
C 1344 236 1331 160 781 160 
L 589 160 
L 589 0 
C 896 0 1216 0 1523 0 
C 1830 0 2150 0 2458 0 
L 2458 160 
L 2266 160 
C 1715 160 1702 230 1702 458 
L 1702 4058 
z
" transform="scale(0.015625)"/>
        <path id="CMMI12-3a" d="M 1178 307 
C 1178 492 1024 619 870 619 
C 685 619 557 466 557 313 
C 557 128 710 0 864 0 
C 1050 0 1178 153 1178 307 
z
" transform="scale(0.015625)"/>
        <path id="CMR17-30" d="M 2688 2025 
C 2688 2416 2682 3080 2413 3591 
C 2176 4039 1798 4198 1466 4198 
C 1158 4198 768 4058 525 3597 
C 269 3118 243 2524 243 2025 
C 243 1661 250 1106 448 619 
C 723 -39 1216 -128 1466 -128 
C 1760 -128 2208 -7 2470 600 
C 2662 1042 2688 1559 2688 2025 
z
M 1466 -26 
C 1056 -26 813 325 723 812 
C 653 1188 653 1738 653 2096 
C 653 2588 653 2997 736 3387 
C 858 3929 1216 4096 1466 4096 
C 1728 4096 2067 3923 2189 3400 
C 2272 3036 2278 2607 2278 2096 
C 2278 1680 2278 1169 2202 792 
C 2067 95 1690 -26 1466 -26 
z
" transform="scale(0.015625)"/>
       </defs>
       <use xlink:href="#CMSY10-0" transform="scale(0.996264)"/>
       <use xlink:href="#CMR17-31" transform="translate(77.487468 0) scale(0.996264)"/>
       <use xlink:href="#CMMI12-3a" transform="translate(123.177945 0) scale(0.996264)"/>
       <use xlink:href="#CMR17-30" transform="translate(150.275122 0) scale(0.996264)"/>
      </g>
     </g>
    </g>
    <g id="xtick_2">
     <g id="line2d_2">
      <path d="M 152.593463 307.584 
L 152.593463 41.472 
" clip-path="url(#p8148173c34)" style="fill: none; stroke: #ffffff; stroke-linecap: round"/>
     </g>
     <g id="text_2">
      <!-- $\mathdefault{−0.5}$ -->
      <g style="fill: #262626" transform="translate(141.330121 324.694347) scale(0.11 -0.11)">
       <defs>
        <path id="CMR17-35" d="M 730 3692 
C 794 3666 1056 3584 1325 3584 
C 1920 3584 2246 3911 2432 4100 
C 2432 4157 2432 4192 2394 4192 
C 2387 4192 2374 4192 2323 4163 
C 2099 4058 1837 3973 1517 3973 
C 1325 3973 1037 3999 723 4139 
C 653 4171 640 4171 634 4171 
C 602 4171 595 4164 595 4037 
L 595 2203 
C 595 2089 595 2057 659 2057 
C 691 2057 704 2070 736 2114 
C 941 2401 1222 2522 1542 2522 
C 1766 2522 2246 2382 2246 1289 
C 2246 1085 2246 715 2054 421 
C 1894 159 1645 25 1370 25 
C 947 25 518 320 403 814 
C 429 807 480 795 506 795 
C 589 795 749 840 749 1038 
C 749 1210 627 1280 506 1280 
C 358 1280 262 1190 262 1011 
C 262 454 704 -128 1382 -128 
C 2042 -128 2669 440 2669 1264 
C 2669 2030 2170 2624 1549 2624 
C 1222 2624 947 2503 730 2274 
L 730 3692 
z
" transform="scale(0.015625)"/>
       </defs>
       <use xlink:href="#CMSY10-0" transform="scale(0.996264)"/>
       <use xlink:href="#CMR17-30" transform="translate(77.487468 0) scale(0.996264)"/>
       <use xlink:href="#CMMI12-3a" transform="translate(123.177945 0) scale(0.996264)"/>
       <use xlink:href="#CMR17-35" transform="translate(150.275122 0) scale(0.996264)"/>
      </g>
     </g>
    </g>
    <g id="xtick_3">
     <g id="line2d_3">
      <path d="M 226.806389 307.584 
L 226.806389 41.472 
" clip-path="url(#p8148173c34)" style="fill: none; stroke: #ffffff; stroke-linecap: round"/>
     </g>
     <g id="text_3">
      <!-- $\mathdefault{0.0}$ -->
      <g style="fill: #262626" transform="translate(219.804851 324.694347) scale(0.11 -0.11)">
       <use xlink:href="#CMR17-30" transform="scale(0.996264)"/>
       <use xlink:href="#CMMI12-3a" transform="translate(45.690477 0) scale(0.996264)"/>
       <use xlink:href="#CMR17-30" transform="translate(72.787654 0) scale(0.996264)"/>
      </g>
     </g>
    </g>
    <g id="xtick_4">
     <g id="line2d_4">
      <path d="M 301.019315 307.584 
L 301.019315 41.472 
" clip-path="url(#p8148173c34)" style="fill: none; stroke: #ffffff; stroke-linecap: round"/>
     </g>
     <g id="text_4">
      <!-- $\mathdefault{0.5}$ -->
      <g style="fill: #262626" transform="translate(294.017777 324.694347) scale(0.11 -0.11)">
       <use xlink:href="#CMR17-30" transform="scale(0.996264)"/>
       <use xlink:href="#CMMI12-3a" transform="translate(45.690477 0) scale(0.996264)"/>
       <use xlink:href="#CMR17-35" transform="translate(72.787654 0) scale(0.996264)"/>
      </g>
     </g>
    </g>
    <g id="xtick_5">
     <g id="line2d_5">
      <path d="M 375.232242 307.584 
L 375.232242 41.472 
" clip-path="url(#p8148173c34)" style="fill: none; stroke: #ffffff; stroke-linecap: round"/>
     </g>
     <g id="text_5">
      <!-- $\mathdefault{1.0}$ -->
      <g style="fill: #262626" transform="translate(368.230703 324.694347) scale(0.11 -0.11)">
       <use xlink:href="#CMR17-31" transform="scale(0.996264)"/>
       <use xlink:href="#CMMI12-3a" transform="translate(45.690477 0) scale(0.996264)"/>
       <use xlink:href="#CMR17-30" transform="translate(72.787654 0) scale(0.996264)"/>
      </g>
     </g>
    </g>
   </g>
   <g id="matplotlib.axis_2">
    <g id="ytick_1">
     <g id="line2d_6">
      <path d="M 57.6 291.705543 
L 414.72 291.705543 
" clip-path="url(#p8148173c34)" style="fill: none; stroke: #ffffff; stroke-linecap: round"/>
     </g>
     <g id="text_6">
      <!-- $\mathdefault{−1.0}$ -->
      <g style="fill: #262626" transform="translate(25.573315 295.510716) scale(0.11 -0.11)">
       <use xlink:href="#CMSY10-0" transform="scale(0.996264)"/>
       <use xlink:href="#CMR17-31" transform="translate(77.487468 0) scale(0.996264)"/>
       <use xlink:href="#CMMI12-3a" transform="translate(123.177945 0) scale(0.996264)"/>
       <use xlink:href="#CMR17-30" transform="translate(150.275122 0) scale(0.996264)"/>
      </g>
     </g>
    </g>
    <g id="ytick_2">
     <g id="line2d_7">
      <path d="M 57.6 234.332872 
L 414.72 234.332872 
" clip-path="url(#p8148173c34)" style="fill: none; stroke: #ffffff; stroke-linecap: round"/>
     </g>
     <g id="text_7">
      <!-- $\mathdefault{−0.5}$ -->
      <g style="fill: #262626" transform="translate(25.573315 238.138045) scale(0.11 -0.11)">
       <use xlink:href="#CMSY10-0" transform="scale(0.996264)"/>
       <use xlink:href="#CMR17-30" transform="translate(77.487468 0) scale(0.996264)"/>
       <use xlink:href="#CMMI12-3a" transform="translate(123.177945 0) scale(0.996264)"/>
       <use xlink:href="#CMR17-35" transform="translate(150.275122 0) scale(0.996264)"/>
      </g>
     </g>
    </g>
    <g id="ytick_3">
     <g id="line2d_8">
      <path d="M 57.6 176.960201 
L 414.72 176.960201 
" clip-path="url(#p8148173c34)" style="fill: none; stroke: #ffffff; stroke-linecap: round"/>
     </g>
     <g id="text_8">
      <!-- $\mathdefault{0.0}$ -->
      <g style="fill: #262626" transform="translate(34.096924 180.765374) scale(0.11 -0.11)">
       <use xlink:href="#CMR17-30" transform="scale(0.996264)"/>
       <use xlink:href="#CMMI12-3a" transform="translate(45.690477 0) scale(0.996264)"/>
       <use xlink:href="#CMR17-30" transform="translate(72.787654 0) scale(0.996264)"/>
      </g>
     </g>
    </g>
    <g id="ytick_4">
     <g id="line2d_9">
      <path d="M 57.6 119.58753 
L 414.72 119.58753 
" clip-path="url(#p8148173c34)" style="fill: none; stroke: #ffffff; stroke-linecap: round"/>
     </g>
     <g id="text_9">
      <!-- $\mathdefault{0.5}$ -->
      <g style="fill: #262626" transform="translate(34.096924 123.392703) scale(0.11 -0.11)">
       <use xlink:href="#CMR17-30" transform="scale(0.996264)"/>
       <use xlink:href="#CMMI12-3a" transform="translate(45.690477 0) scale(0.996264)"/>
       <use xlink:href="#CMR17-35" transform="translate(72.787654 0) scale(0.996264)"/>
      </g>
     </g>
    </g>
    <g id="ytick_5">
     <g id="line2d_10">
      <path d="M 57.6 62.214859 
L 414.72 62.214859 
" clip-path="url(#p8148173c34)" style="fill: none; stroke: #ffffff; stroke-linecap: round"/>
     </g>
     <g id="text_10">
      <!-- $\mathdefault{1.0}$ -->
      <g style="fill: #262626" transform="translate(34.096924 66.020033) scale(0.11 -0.11)">
       <use xlink:href="#CMR17-31" transform="scale(0.996264)"/>
       <use xlink:href="#CMMI12-3a" transform="translate(45.690477 0) scale(0.996264)"/>
       <use xlink:href="#CMR17-30" transform="translate(72.787654 0) scale(0.996264)"/>
      </g>
     </g>
    </g>
   </g>
   <g id="PathCollection_1">
    <defs>
     <path id="m3f8cf977d9" d="M 0 1.936492 
C 0.513564 1.936492 1.006162 1.732451 1.369306 1.369306 
C 1.732451 1.006162 1.936492 0.513564 1.936492 0 
C 1.936492 -0.513564 1.732451 -1.006162 1.369306 -1.369306 
C 1.006162 -1.732451 0.513564 -1.936492 0 -1.936492 
C -0.513564 -1.936492 -1.006162 -1.732451 -1.369306 -1.369306 
C -1.732451 -1.006162 -1.936492 -0.513564 -1.936492 0 
C -1.936492 0.513564 -1.732451 1.006162 -1.369306 1.369306 
C -1.006162 1.732451 -0.513564 1.936492 0 1.936492 
z
" style="stroke: #ffffff; stroke-width: 0.309839"/>
    </defs>
    <g clip-path="url(#p8148173c34)">
     <use xlink:href="#m3f8cf977d9" x="253.459292" y="293.406408" style="fill: #4c72b0; stroke: #ffffff; stroke-width: 0.309839"/>
     <use xlink:href="#m3f8cf977d9" x="240.945368" y="124.284301" style="fill: #4c72b0; stroke: #ffffff; stroke-width: 0.309839"/>
     <use xlink:href="#m3f8cf977d9" x="270.332173" y="227.764726" style="fill: #4c72b0; stroke: #ffffff; stroke-width: 0.309839"/>
     <use xlink:href="#m3f8cf977d9" x="164.562552" y="221.908293" style="fill: #4c72b0; stroke: #ffffff; stroke-width: 0.309839"/>
     <use xlink:href="#m3f8cf977d9" x="398.487273" y="194.324301" style="fill: #4c72b0; stroke: #ffffff; stroke-width: 0.309839"/>
     <use xlink:href="#m3f8cf977d9" x="151.150271" y="128.624764" style="fill: #4c72b0; stroke: #ffffff; stroke-width: 0.309839"/>
     <use xlink:href="#m3f8cf977d9" x="209.937904" y="123.609547" style="fill: #4c72b0; stroke: #ffffff; stroke-width: 0.309839"/>
     <use xlink:href="#m3f8cf977d9" x="163.32254" y="65.149" style="fill: #4c72b0; stroke: #ffffff; stroke-width: 0.309839"/>
     <use xlink:href="#m3f8cf977d9" x="123.92045" y="107.555242" style="fill: #4c72b0; stroke: #ffffff; stroke-width: 0.309839"/>
     <use xlink:href="#m3f8cf977d9" x="152.198838" y="173.7375" style="fill: #4c72b0; stroke: #ffffff; stroke-width: 0.309839"/>
     <use xlink:href="#m3f8cf977d9" x="198.943793" y="61.716329" style="fill: #4c72b0; stroke: #ffffff; stroke-width: 0.309839"/>
     <use xlink:href="#m3f8cf977d9" x="155.786577" y="266.160674" style="fill: #4c72b0; stroke: #ffffff; stroke-width: 0.309839"/>
     <use xlink:href="#m3f8cf977d9" x="135.706862" y="150.629158" style="fill: #4c72b0; stroke: #ffffff; stroke-width: 0.309839"/>
     <use xlink:href="#m3f8cf977d9" x="340.557302" y="107.438885" style="fill: #4c72b0; stroke: #ffffff; stroke-width: 0.309839"/>
     <use xlink:href="#m3f8cf977d9" x="157.65919" y="182.514113" style="fill: #4c72b0; stroke: #ffffff; stroke-width: 0.309839"/>
     <use xlink:href="#m3f8cf977d9" x="243.377492" y="238.380645" style="fill: #4c72b0; stroke: #ffffff; stroke-width: 0.309839"/>
     <use xlink:href="#m3f8cf977d9" x="271.616397" y="286.2665" style="fill: #4c72b0; stroke: #ffffff; stroke-width: 0.309839"/>
     <use xlink:href="#m3f8cf977d9" x="76.341995" y="183.685728" style="fill: #4c72b0; stroke: #ffffff; stroke-width: 0.309839"/>
     <use xlink:href="#m3f8cf977d9" x="275.639714" y="128.062366" style="fill: #4c72b0; stroke: #ffffff; stroke-width: 0.309839"/>
     <use xlink:href="#m3f8cf977d9" x="354.060766" y="116.647579" style="fill: #4c72b0; stroke: #ffffff; stroke-width: 0.309839"/>
     <use xlink:href="#m3f8cf977d9" x="79.105926" y="197.985" style="fill: #4c72b0; stroke: #ffffff; stroke-width: 0.309839"/>
     <use xlink:href="#m3f8cf977d9" x="206.400519" y="115.406911" style="fill: #4c72b0; stroke: #ffffff; stroke-width: 0.309839"/>
     <use xlink:href="#m3f8cf977d9" x="182.309425" y="125.517649" style="fill: #4c72b0; stroke: #ffffff; stroke-width: 0.309839"/>
     <use xlink:href="#m3f8cf977d9" x="131.492615" y="106.18435" style="fill: #4c72b0; stroke: #ffffff; stroke-width: 0.309839"/>
     <use xlink:href="#m3f8cf977d9" x="252.705125" y="66.37218" style="fill: #4c72b0; stroke: #ffffff; stroke-width: 0.309839"/>
     <use xlink:href="#m3f8cf977d9" x="238.043793" y="232.120971" style="fill: #4c72b0; stroke: #ffffff; stroke-width: 0.309839"/>
     <use xlink:href="#m3f8cf977d9" x="315.010582" y="258.709886" style="fill: #4c72b0; stroke: #ffffff; stroke-width: 0.309839"/>
     <use xlink:href="#m3f8cf977d9" x="282.987271" y="194.429853" style="fill: #4c72b0; stroke: #ffffff; stroke-width: 0.309839"/>
     <use xlink:href="#m3f8cf977d9" x="292.866209" y="145.084499" style="fill: #4c72b0; stroke: #ffffff; stroke-width: 0.309839"/>
     <use xlink:href="#m3f8cf977d9" x="315.803909" y="80.693784" style="fill: #4c72b0; stroke: #ffffff; stroke-width: 0.309839"/>
     <use xlink:href="#m3f8cf977d9" x="356.88471" y="134.343507" style="fill: #4c72b0; stroke: #ffffff; stroke-width: 0.309839"/>
     <use xlink:href="#m3f8cf977d9" x="300.413183" y="217.392588" style="fill: #4c72b0; stroke: #ffffff; stroke-width: 0.309839"/>
     <use xlink:href="#m3f8cf977d9" x="143.417105" y="268.621038" style="fill: #4c72b0; stroke: #ffffff; stroke-width: 0.309839"/>
     <use xlink:href="#m3f8cf977d9" x="150.270528" y="175.918969" style="fill: #4c72b0; stroke: #ffffff; stroke-width: 0.309839"/>
     <use xlink:href="#m3f8cf977d9" x="289.386666" y="188.897683" style="fill: #4c72b0; stroke: #ffffff; stroke-width: 0.309839"/>
     <use xlink:href="#m3f8cf977d9" x="159.97654" y="203.14772" style="fill: #4c72b0; stroke: #ffffff; stroke-width: 0.309839"/>
     <use xlink:href="#m3f8cf977d9" x="179.81967" y="228.76653" style="fill: #4c72b0; stroke: #ffffff; stroke-width: 0.309839"/>
     <use xlink:href="#m3f8cf977d9" x="300.19363" y="277.645111" style="fill: #4c72b0; stroke: #ffffff; stroke-width: 0.309839"/>
     <use xlink:href="#m3f8cf977d9" x="277.553677" y="82.166248" style="fill: #4c72b0; stroke: #ffffff; stroke-width: 0.309839"/>
     <use xlink:href="#m3f8cf977d9" x="91.704407" y="127.5624" style="fill: #4c72b0; stroke: #ffffff; stroke-width: 0.309839"/>
     <use xlink:href="#m3f8cf977d9" x="258.518587" y="242.132718" style="fill: #4c72b0; stroke: #ffffff; stroke-width: 0.309839"/>
     <use xlink:href="#m3f8cf977d9" x="223.593857" y="292.024948" style="fill: #4c72b0; stroke: #ffffff; stroke-width: 0.309839"/>
     <use xlink:href="#m3f8cf977d9" x="153.408643" y="175.737664" style="fill: #4c72b0; stroke: #ffffff; stroke-width: 0.309839"/>
     <use xlink:href="#m3f8cf977d9" x="98.61898" y="228.715874" style="fill: #4c72b0; stroke: #ffffff; stroke-width: 0.309839"/>
     <use xlink:href="#m3f8cf977d9" x="92.409443" y="127.011" style="fill: #4c72b0; stroke: #ffffff; stroke-width: 0.309839"/>
     <use xlink:href="#m3f8cf977d9" x="123.824813" y="245.148975" style="fill: #4c72b0; stroke: #ffffff; stroke-width: 0.309839"/>
     <use xlink:href="#m3f8cf977d9" x="211.671889" y="288.019572" style="fill: #4c72b0; stroke: #ffffff; stroke-width: 0.309839"/>
     <use xlink:href="#m3f8cf977d9" x="285.103648" y="134.444162" style="fill: #4c72b0; stroke: #ffffff; stroke-width: 0.309839"/>
     <use xlink:href="#m3f8cf977d9" x="139.168511" y="73.756933" style="fill: #4c72b0; stroke: #ffffff; stroke-width: 0.309839"/>
     <use xlink:href="#m3f8cf977d9" x="269.754684" y="139.142477" style="fill: #4c72b0; stroke: #ffffff; stroke-width: 0.309839"/>
     <use xlink:href="#m3f8cf977d9" x="222.028264" y="112.894098" style="fill: #4c72b0; stroke: #ffffff; stroke-width: 0.309839"/>
     <use xlink:href="#m3f8cf977d9" x="372.802822" y="189.92464" style="fill: #4c72b0; stroke: #ffffff; stroke-width: 0.309839"/>
     <use xlink:href="#m3f8cf977d9" x="357.687983" y="236.309528" style="fill: #4c72b0; stroke: #ffffff; stroke-width: 0.309839"/>
     <use xlink:href="#m3f8cf977d9" x="156.145779" y="150.965935" style="fill: #4c72b0; stroke: #ffffff; stroke-width: 0.309839"/>
     <use xlink:href="#m3f8cf977d9" x="294.935296" y="147.160776" style="fill: #4c72b0; stroke: #ffffff; stroke-width: 0.309839"/>
     <use xlink:href="#m3f8cf977d9" x="122.884118" y="101.813171" style="fill: #4c72b0; stroke: #ffffff; stroke-width: 0.309839"/>
     <use xlink:href="#m3f8cf977d9" x="170.45483" y="285.114574" style="fill: #4c72b0; stroke: #ffffff; stroke-width: 0.309839"/>
     <use xlink:href="#m3f8cf977d9" x="137.598812" y="64.975007" style="fill: #4c72b0; stroke: #ffffff; stroke-width: 0.309839"/>
     <use xlink:href="#m3f8cf977d9" x="183.478729" y="130.637534" style="fill: #4c72b0; stroke: #ffffff; stroke-width: 0.309839"/>
     <use xlink:href="#m3f8cf977d9" x="163.922309" y="163.182443" style="fill: #4c72b0; stroke: #ffffff; stroke-width: 0.309839"/>
     <use xlink:href="#m3f8cf977d9" x="273.169958" y="285.023639" style="fill: #4c72b0; stroke: #ffffff; stroke-width: 0.309839"/>
     <use xlink:href="#m3f8cf977d9" x="380.36874" y="152.986337" style="fill: #4c72b0; stroke: #ffffff; stroke-width: 0.309839"/>
     <use xlink:href="#m3f8cf977d9" x="87.286225" y="159.977569" style="fill: #4c72b0; stroke: #ffffff; stroke-width: 0.309839"/>
     <use xlink:href="#m3f8cf977d9" x="232.897715" y="65.166896" style="fill: #4c72b0; stroke: #ffffff; stroke-width: 0.309839"/>
     <use xlink:href="#m3f8cf977d9" x="273.690016" y="167.516915" style="fill: #4c72b0; stroke: #ffffff; stroke-width: 0.309839"/>
     <use xlink:href="#m3f8cf977d9" x="254.719692" y="118.461452" style="fill: #4c72b0; stroke: #ffffff; stroke-width: 0.309839"/>
     <use xlink:href="#m3f8cf977d9" x="358.547566" y="159.299863" style="fill: #4c72b0; stroke: #ffffff; stroke-width: 0.309839"/>
     <use xlink:href="#m3f8cf977d9" x="225.865492" y="295.488" style="fill: #4c72b0; stroke: #ffffff; stroke-width: 0.309839"/>
     <use xlink:href="#m3f8cf977d9" x="315.675393" y="82.480299" style="fill: #4c72b0; stroke: #ffffff; stroke-width: 0.309839"/>
     <use xlink:href="#m3f8cf977d9" x="285.107536" y="139.129503" style="fill: #4c72b0; stroke: #ffffff; stroke-width: 0.309839"/>
     <use xlink:href="#m3f8cf977d9" x="163.736048" y="238.86707" style="fill: #4c72b0; stroke: #ffffff; stroke-width: 0.309839"/>
     <use xlink:href="#m3f8cf977d9" x="194.865495" y="53.568" style="fill: #4c72b0; stroke: #ffffff; stroke-width: 0.309839"/>
     <use xlink:href="#m3f8cf977d9" x="276.220124" y="200.289173" style="fill: #4c72b0; stroke: #ffffff; stroke-width: 0.309839"/>
     <use xlink:href="#m3f8cf977d9" x="286.03175" y="182.678063" style="fill: #4c72b0; stroke: #ffffff; stroke-width: 0.309839"/>
     <use xlink:href="#m3f8cf977d9" x="97.467961" y="237.992791" style="fill: #4c72b0; stroke: #ffffff; stroke-width: 0.309839"/>
     <use xlink:href="#m3f8cf977d9" x="368.089821" y="231.558628" style="fill: #4c72b0; stroke: #ffffff; stroke-width: 0.309839"/>
     <use xlink:href="#m3f8cf977d9" x="210.245095" y="228.551255" style="fill: #4c72b0; stroke: #ffffff; stroke-width: 0.309839"/>
     <use xlink:href="#m3f8cf977d9" x="342.521627" y="110.884077" style="fill: #4c72b0; stroke: #ffffff; stroke-width: 0.309839"/>
     <use xlink:href="#m3f8cf977d9" x="207.774712" y="234.985259" style="fill: #4c72b0; stroke: #ffffff; stroke-width: 0.309839"/>
     <use xlink:href="#m3f8cf977d9" x="73.832727" y="185.989826" style="fill: #4c72b0; stroke: #ffffff; stroke-width: 0.309839"/>
     <use xlink:href="#m3f8cf977d9" x="124.324883" y="257.965318" style="fill: #4c72b0; stroke: #ffffff; stroke-width: 0.309839"/>
     <use xlink:href="#m3f8cf977d9" x="282.441076" y="81.632081" style="fill: #4c72b0; stroke: #ffffff; stroke-width: 0.309839"/>
     <use xlink:href="#m3f8cf977d9" x="256.890166" y="230.433037" style="fill: #4c72b0; stroke: #ffffff; stroke-width: 0.309839"/>
     <use xlink:href="#m3f8cf977d9" x="299.302483" y="169.616928" style="fill: #4c72b0; stroke: #ffffff; stroke-width: 0.309839"/>
     <use xlink:href="#m3f8cf977d9" x="224.637612" y="226.243593" style="fill: #4c72b0; stroke: #ffffff; stroke-width: 0.309839"/>
     <use xlink:href="#m3f8cf977d9" x="181.591688" y="213.329684" style="fill: #4c72b0; stroke: #ffffff; stroke-width: 0.309839"/>
     <use xlink:href="#m3f8cf977d9" x="159.990424" y="130.905988" style="fill: #4c72b0; stroke: #ffffff; stroke-width: 0.309839"/>
     <use xlink:href="#m3f8cf977d9" x="165.725474" y="204.445669" style="fill: #4c72b0; stroke: #ffffff; stroke-width: 0.309839"/>
     <use xlink:href="#m3f8cf977d9" x="211.153453" y="235.156528" style="fill: #4c72b0; stroke: #ffffff; stroke-width: 0.309839"/>
     <use xlink:href="#m3f8cf977d9" x="107.853138" y="112.024656" style="fill: #4c72b0; stroke: #ffffff; stroke-width: 0.309839"/>
     <use xlink:href="#m3f8cf977d9" x="355.083002" y="248.485462" style="fill: #4c72b0; stroke: #ffffff; stroke-width: 0.309839"/>
     <use xlink:href="#m3f8cf977d9" x="222.414264" y="123.576865" style="fill: #4c72b0; stroke: #ffffff; stroke-width: 0.309839"/>
     <use xlink:href="#m3f8cf977d9" x="236.544968" y="113.17838" style="fill: #4c72b0; stroke: #ffffff; stroke-width: 0.309839"/>
     <use xlink:href="#m3f8cf977d9" x="364.976199" y="143.03288" style="fill: #4c72b0; stroke: #ffffff; stroke-width: 0.309839"/>
     <use xlink:href="#m3f8cf977d9" x="325.220087" y="254.143752" style="fill: #4c72b0; stroke: #ffffff; stroke-width: 0.309839"/>
     <use xlink:href="#m3f8cf977d9" x="288.06731" y="209.291312" style="fill: #4c72b0; stroke: #ffffff; stroke-width: 0.309839"/>
     <use xlink:href="#m3f8cf977d9" x="286.539015" y="192.484761" style="fill: #4c72b0; stroke: #ffffff; stroke-width: 0.309839"/>
     <use xlink:href="#m3f8cf977d9" x="174.83585" y="211.726408" style="fill: #4c72b0; stroke: #ffffff; stroke-width: 0.309839"/>
     <use xlink:href="#m3f8cf977d9" x="87.78516" y="222.144518" style="fill: #4c72b0; stroke: #ffffff; stroke-width: 0.309839"/>
     <use xlink:href="#m3f8cf977d9" x="183.417879" y="123.347383" style="fill: #4c72b0; stroke: #ffffff; stroke-width: 0.309839"/>
    </g>
   </g>
   <g id="patch_3">
    <path d="M 57.6 307.584 
L 57.6 41.472 
" style="fill: none; stroke: #ffffff; stroke-width: 1.25; stroke-linejoin: miter; stroke-linecap: square"/>
   </g>
   <g id="patch_4">
    <path d="M 414.72 307.584 
L 414.72 41.472 
" style="fill: none; stroke: #ffffff; stroke-width: 1.25; stroke-linejoin: miter; stroke-linecap: square"/>
   </g>
   <g id="patch_5">
    <path d="M 57.6 307.584 
L 414.72 307.584 
" style="fill: none; stroke: #ffffff; stroke-width: 1.25; stroke-linejoin: miter; stroke-linecap: square"/>
   </g>
   <g id="patch_6">
    <path d="M 57.6 41.472 
L 414.72 41.472 
" style="fill: none; stroke: #ffffff; stroke-width: 1.25; stroke-linejoin: miter; stroke-linecap: square"/>
   </g>
   <g id="text_11">
    <!-- Two circles dataset 
 N=100 -->
    <g style="fill: #262626" transform="translate(189.05524 35.472) scale(0.12 -0.12)">
     <defs>
      <path id="CMSS17-54" d="M 2317 3968 
L 2848 3968 
C 2925 3968 3002 3968 3078 3968 
L 3878 3968 
L 3878 4376 
L 218 4376 
L 218 3968 
L 1018 3968 
C 1094 3968 1171 3968 1248 3968 
L 1779 3968 
L 1779 -32 
L 2317 -32 
L 2317 3968 
z
" transform="scale(0.015625)"/>
      <path id="CMSS17-77" d="M 4013 2752 
L 3526 2752 
L 3187 1601 
C 3117 1358 2918 685 2893 371 
L 2886 371 
C 2874 564 2765 1024 2586 1633 
L 2259 2752 
L 1818 2752 
L 1498 1658 
C 1338 1101 1216 627 1203 371 
L 1197 371 
C 1171 749 909 1633 870 1773 
L 582 2752 
L 83 2752 
L 915 0 
L 1402 0 
C 1734 1096 1990 1943 2010 2370 
C 2022 2160 2131 1707 2195 1484 
L 2618 0 
L 3181 0 
L 4013 2752 
z
" transform="scale(0.015625)"/>
      <path id="CMSS17-6f" d="M 2829 1356 
C 2829 2176 2221 2816 1504 2816 
C 768 2816 173 2157 173 1356 
C 173 544 787 -64 1498 -64 
C 2227 -64 2829 563 2829 1356 
z
M 1504 337 
C 1050 337 659 709 659 1408 
C 659 2151 1114 2427 1498 2427 
C 1914 2427 2342 2126 2342 1408 
C 2342 683 1926 337 1504 337 
z
" transform="scale(0.015625)"/>
      <path id="CMSS17-63" d="M 2464 2541 
C 2464 2585 2170 2714 2093 2739 
C 1882 2816 1613 2816 1542 2816 
C 710 2816 211 2093 211 1363 
C 211 595 768 -64 1517 -64 
C 1946 -64 2253 76 2502 242 
L 2464 664 
C 2189 453 1869 337 1523 337 
C 1024 337 698 774 698 1369 
C 698 1831 909 2414 1549 2414 
C 1901 2414 2099 2343 2394 2145 
L 2464 2541 
z
" transform="scale(0.015625)"/>
      <path id="CMSS17-69" d="M 979 4183 
L 442 4183 
L 442 3648 
L 979 3648 
L 979 4183 
z
M 947 2739 
L 474 2739 
L 474 0 
L 947 0 
L 947 2739 
z
" transform="scale(0.015625)"/>
      <path id="CMSS17-72" d="M 954 1363 
C 954 1965 1395 2368 1958 2368 
L 1958 2789 
C 1549 2789 1165 2585 934 2253 
L 934 2758 
L 480 2758 
L 480 0 
L 954 0 
L 954 1363 
z
" transform="scale(0.015625)"/>
      <path id="CMSS17-6c" d="M 947 4416 
L 474 4416 
L 474 0 
L 947 0 
L 947 4416 
z
" transform="scale(0.015625)"/>
      <path id="CMSS17-65" d="M 2502 1377 
C 2502 1590 2490 2003 2285 2345 
C 2061 2713 1696 2816 1421 2816 
C 755 2816 192 2188 192 1375 
C 192 582 774 -64 1510 -64 
C 1798 -64 2150 19 2470 248 
C 2470 274 2458 414 2451 420 
C 2451 433 2432 630 2432 656 
C 2125 407 1773 325 1517 325 
C 1107 325 666 667 646 1377 
L 2502 1377 
z
M 698 1728 
C 781 2084 1062 2421 1421 2421 
C 1517 2421 1965 2421 2080 1728 
L 698 1728 
z
" transform="scale(0.015625)"/>
      <path id="CMSS17-73" d="M 2061 2627 
C 1683 2807 1389 2807 1197 2807 
C 742 2807 198 2648 198 2003 
C 198 1359 902 1218 1094 1179 
C 1389 1122 1715 1058 1715 740 
C 1715 337 1254 337 1171 337 
C 915 337 563 407 243 638 
L 166 210 
C 531 0 883 -64 1178 -64 
C 1965 -64 2163 416 2163 781 
C 2163 1094 1984 1305 1862 1401 
C 1651 1568 1574 1587 1050 1696 
C 960 1709 646 1779 646 2066 
C 646 2432 1050 2432 1139 2432 
C 1555 2432 1811 2303 1984 2208 
L 2061 2627 
z
" transform="scale(0.015625)"/>
      <path id="CMSS17-64" d="M 2611 4416 
L 2138 4416 
L 2138 2438 
C 1939 2603 1613 2756 1254 2756 
C 672 2756 211 2131 211 1347 
C 211 562 666 -64 1235 -64 
C 1677 -64 1971 172 2125 306 
L 2125 -13 
L 2611 -13 
L 2611 4416 
z
M 2125 836 
C 2125 747 2125 653 1926 482 
C 1798 375 1645 325 1498 325 
C 1152 325 698 576 698 1340 
C 698 2134 1210 2368 1562 2368 
C 1798 2368 1990 2254 2125 2065 
L 2125 836 
z
" transform="scale(0.015625)"/>
      <path id="CMSS17-61" d="M 2406 1791 
C 2406 2392 1978 2808 1402 2808 
C 1120 2808 813 2757 461 2553 
L 499 2135 
C 659 2248 934 2432 1395 2432 
C 1722 2432 1920 2180 1920 1782 
L 1920 1536 
C 896 1536 256 1238 256 726 
C 256 461 416 -64 947 -64 
C 1043 -64 1562 -64 1933 217 
L 1933 -19 
L 2406 -19 
L 2406 1791 
z
M 1920 816 
C 1920 701 1920 548 1728 434 
C 1562 325 1350 325 1261 325 
C 941 325 723 511 723 744 
C 723 1211 1722 1211 1920 1211 
L 1920 816 
z
" transform="scale(0.015625)"/>
      <path id="CMSS17-74" d="M 1069 2368 
L 1901 2368 
L 1901 2737 
L 1069 2737 
L 1069 3520 
L 614 3520 
L 614 2737 
L 109 2737 
L 109 2368 
L 602 2368 
L 602 749 
C 602 384 685 -64 1107 -64 
C 1427 -64 1722 25 2003 172 
L 1901 548 
C 1747 414 1562 337 1363 337 
C 1082 337 1069 696 1069 856 
L 1069 2368 
z
" transform="scale(0.015625)"/>
      <path id="CMSS17-4e" d="M 1466 4180 
L 1350 4416 
L 563 4416 
L 563 0 
L 1062 0 
L 1062 3926 
L 1069 3932 
C 1114 3817 1139 3760 1402 3194 
L 2771 236 
L 2886 0 
L 3674 0 
L 3674 4416 
L 3174 4416 
L 3174 490 
L 3168 483 
C 3123 598 3098 655 2835 1221 
L 1466 4180 
z
" transform="scale(0.015625)"/>
      <path id="CMSS17-3d" d="M 4147 2017 
C 4243 2017 4339 2017 4339 2125 
C 4339 2240 4230 2240 4122 2240 
L 550 2240 
C 442 2240 333 2240 333 2125 
C 333 2017 429 2017 525 2017 
L 4147 2017 
z
M 4122 896 
C 4230 896 4339 896 4339 1011 
C 4339 1119 4243 1119 4147 1119 
L 525 1119 
C 429 1119 333 1119 333 1011 
C 333 896 442 896 550 896 
L 4122 896 
z
" transform="scale(0.015625)"/>
      <path id="CMSS17-31" d="M 1818 4288 
L 1696 4288 
C 1350 3940 947 3890 538 3890 
L 538 3520 
C 723 3520 1024 3520 1325 3667 
L 1325 369 
L 570 369 
L 570 0 
L 2573 0 
L 2573 369 
L 1818 369 
L 1818 4288 
z
" transform="scale(0.015625)"/>
      <path id="CMSS17-30" d="M 2758 2044 
C 2758 2405 2752 3077 2490 3596 
C 2227 4096 1805 4229 1504 4229 
C 1069 4229 698 3975 506 3570 
C 301 3146 243 2709 243 2044 
C 243 1589 262 1031 493 543 
C 755 5 1197 -128 1498 -128 
C 1894 -128 2278 81 2496 518 
C 2720 974 2758 1474 2758 2044 
z
M 1498 261 
C 1011 261 864 811 819 995 
C 742 1310 730 1614 730 2114 
C 730 2506 730 2948 851 3297 
C 998 3701 1254 3840 1498 3840 
C 1971 3840 2125 3372 2176 3208 
C 2272 2873 2272 2481 2272 2114 
C 2272 1526 2272 261 1498 261 
z
" transform="scale(0.015625)"/>
     </defs>
     <use xlink:href="#CMSS17-54" transform="translate(0 70.181278) scale(0.996264)"/>
     <use xlink:href="#CMSS17-77" transform="translate(63.819454 70.181278) scale(0.996264)"/>
     <use xlink:href="#CMSS17-6f" transform="translate(125.036545 70.181278) scale(0.996264)"/>
     <use xlink:href="#CMSS17-63" transform="translate(203.109281 70.181278) scale(0.996264)"/>
     <use xlink:href="#CMSS17-69" transform="translate(244.748103 70.181278) scale(0.996264)"/>
     <use xlink:href="#CMSS17-72" transform="translate(266.928826 70.181278) scale(0.996264)"/>
     <use xlink:href="#CMSS17-63" transform="translate(298.838599 70.181278) scale(0.996264)"/>
     <use xlink:href="#CMSS17-6c" transform="translate(340.477421 70.181278) scale(0.996264)"/>
     <use xlink:href="#CMSS17-65" transform="translate(362.658144 70.181278) scale(0.996264)"/>
     <use xlink:href="#CMSS17-73" transform="translate(404.296966 70.181278) scale(0.996264)"/>
     <use xlink:href="#CMSS17-64" transform="translate(471.439621 70.181278) scale(0.996264)"/>
     <use xlink:href="#CMSS17-61" transform="translate(519.644564 70.181278) scale(0.996264)"/>
     <use xlink:href="#CMSS17-74" transform="translate(564.566485 70.181278) scale(0.996264)"/>
     <use xlink:href="#CMSS17-61" transform="translate(598.398051 70.181278) scale(0.996264)"/>
     <use xlink:href="#CMSS17-73" transform="translate(643.319972 70.181278) scale(0.996264)"/>
     <use xlink:href="#CMSS17-65" transform="translate(679.233514 70.181278) scale(0.996264)"/>
     <use xlink:href="#CMSS17-74" transform="translate(720.872336 70.181278) scale(0.996264)"/>
     <use xlink:href="#CMSS17-4e" transform="scale(0.996264)"/>
     <use xlink:href="#CMSS17-3d" transform="translate(66.061519 0) scale(0.996264)"/>
     <use xlink:href="#CMSS17-31" transform="translate(138.929454 0) scale(0.996264)"/>
     <use xlink:href="#CMSS17-30" transform="translate(185.773078 0) scale(0.996264)"/>
     <use xlink:href="#CMSS17-30" transform="translate(232.616701 0) scale(0.996264)"/>
    </g>
   </g>
  </g>
 </g>
 <defs>
  <clipPath id="p8148173c34">
   <rect x="57.6" y="41.472" width="357.12" height="266.112"/>
  </clipPath>
 </defs>
</svg>
