<?xml version="1.0" encoding="utf-8" standalone="no"?>
<!DOCTYPE svg PUBLIC "-//W3C//DTD SVG 1.1//EN"
  "http://www.w3.org/Graphics/SVG/1.1/DTD/svg11.dtd">
<svg xmlns:xlink="http://www.w3.org/1999/xlink" width="460.8pt" height="345.6pt" viewBox="0 0 460.8 345.6" xmlns="http://www.w3.org/2000/svg" version="1.1">
 <metadata>
  <rdf:RDF xmlns:dc="http://purl.org/dc/elements/1.1/" xmlns:cc="http://creativecommons.org/ns#" xmlns:rdf="http://www.w3.org/1999/02/22-rdf-syntax-ns#">
   <cc:Work>
    <dc:type rdf:resource="http://purl.org/dc/dcmitype/StillImage"/>
    <dc:date>2022-10-15T16:02:03.172763</dc:date>
    <dc:format>image/svg+xml</dc:format>
    <dc:creator>
     <cc:Agent>
      <dc:title>Matplotlib v3.6.0, https://matplotlib.org/</dc:title>
     </cc:Agent>
    </dc:creator>
   </cc:Work>
  </rdf:RDF>
 </metadata>
 <defs>
  <style type="text/css">*{stroke-linejoin: round; stroke-linecap: butt}</style>
 </defs>
 <g id="figure_1">
  <g id="patch_1">
   <path d="M 0 345.6 
L 460.8 345.6 
L 460.8 0 
L 0 0 
z
" style="fill: #ffffff"/>
  </g>
  <g id="axes_1">
   <g id="patch_2">
    <path d="M 57.6 307.584 
L 414.72 307.584 
L 414.72 41.472 
L 57.6 41.472 
z
" style="fill: #eaeaf2"/>
   </g>
   <g id="matplotlib.axis_1">
    <g id="xtick_1">
     <g id="line2d_1">
      <path d="M 78.380537 307.584 
L 78.380537 41.472 
" clip-path="url(#pbd2b91bdeb)" style="fill: none; stroke: #ffffff; stroke-linecap: round"/>
     </g>
     <g id="text_1">
      <!-- $\mathdefault{−1.0}$ -->
      <g style="fill: #262626" transform="translate(67.117195 324.694347) scale(0.11 -0.11)">
       <defs>
        <path id="CMSY10-0" d="M 4218 1472 
C 4326 1472 4442 1472 4442 1600 
C 4442 1728 4326 1728 4218 1728 
L 755 1728 
C 646 1728 531 1728 531 1600 
C 531 1472 646 1472 755 1472 
L 4218 1472 
z
" transform="scale(0.015625)"/>
        <path id="CMR17-31" d="M 1702 4058 
C 1702 4192 1696 4192 1606 4192 
C 1357 3916 979 3827 621 3827 
C 602 3827 570 3827 563 3808 
C 557 3795 557 3782 557 3648 
C 755 3648 1088 3686 1344 3839 
L 1344 461 
C 1344 236 1331 160 781 160 
L 589 160 
L 589 0 
C 896 0 1216 0 1523 0 
C 1830 0 2150 0 2458 0 
L 2458 160 
L 2266 160 
C 1715 160 1702 230 1702 458 
L 1702 4058 
z
" transform="scale(0.015625)"/>
        <path id="CMMI12-3a" d="M 1178 307 
C 1178 492 1024 619 870 619 
C 685 619 557 466 557 313 
C 557 128 710 0 864 0 
C 1050 0 1178 153 1178 307 
z
" transform="scale(0.015625)"/>
        <path id="CMR17-30" d="M 2688 2025 
C 2688 2416 2682 3080 2413 3591 
C 2176 4039 1798 4198 1466 4198 
C 1158 4198 768 4058 525 3597 
C 269 3118 243 2524 243 2025 
C 243 1661 250 1106 448 619 
C 723 -39 1216 -128 1466 -128 
C 1760 -128 2208 -7 2470 600 
C 2662 1042 2688 1559 2688 2025 
z
M 1466 -26 
C 1056 -26 813 325 723 812 
C 653 1188 653 1738 653 2096 
C 653 2588 653 2997 736 3387 
C 858 3929 1216 4096 1466 4096 
C 1728 4096 2067 3923 2189 3400 
C 2272 3036 2278 2607 2278 2096 
C 2278 1680 2278 1169 2202 792 
C 2067 95 1690 -26 1466 -26 
z
" transform="scale(0.015625)"/>
       </defs>
       <use xlink:href="#CMSY10-0" transform="scale(0.996264)"/>
       <use xlink:href="#CMR17-31" transform="translate(77.487468 0) scale(0.996264)"/>
       <use xlink:href="#CMMI12-3a" transform="translate(123.177945 0) scale(0.996264)"/>
       <use xlink:href="#CMR17-30" transform="translate(150.275122 0) scale(0.996264)"/>
      </g>
     </g>
    </g>
    <g id="xtick_2">
     <g id="line2d_2">
      <path d="M 152.593463 307.584 
L 152.593463 41.472 
" clip-path="url(#pbd2b91bdeb)" style="fill: none; stroke: #ffffff; stroke-linecap: round"/>
     </g>
     <g id="text_2">
      <!-- $\mathdefault{−0.5}$ -->
      <g style="fill: #262626" transform="translate(141.330121 324.694347) scale(0.11 -0.11)">
       <defs>
        <path id="CMR17-35" d="M 730 3692 
C 794 3666 1056 3584 1325 3584 
C 1920 3584 2246 3911 2432 4100 
C 2432 4157 2432 4192 2394 4192 
C 2387 4192 2374 4192 2323 4163 
C 2099 4058 1837 3973 1517 3973 
C 1325 3973 1037 3999 723 4139 
C 653 4171 640 4171 634 4171 
C 602 4171 595 4164 595 4037 
L 595 2203 
C 595 2089 595 2057 659 2057 
C 691 2057 704 2070 736 2114 
C 941 2401 1222 2522 1542 2522 
C 1766 2522 2246 2382 2246 1289 
C 2246 1085 2246 715 2054 421 
C 1894 159 1645 25 1370 25 
C 947 25 518 320 403 814 
C 429 807 480 795 506 795 
C 589 795 749 840 749 1038 
C 749 1210 627 1280 506 1280 
C 358 1280 262 1190 262 1011 
C 262 454 704 -128 1382 -128 
C 2042 -128 2669 440 2669 1264 
C 2669 2030 2170 2624 1549 2624 
C 1222 2624 947 2503 730 2274 
L 730 3692 
z
" transform="scale(0.015625)"/>
       </defs>
       <use xlink:href="#CMSY10-0" transform="scale(0.996264)"/>
       <use xlink:href="#CMR17-30" transform="translate(77.487468 0) scale(0.996264)"/>
       <use xlink:href="#CMMI12-3a" transform="translate(123.177945 0) scale(0.996264)"/>
       <use xlink:href="#CMR17-35" transform="translate(150.275122 0) scale(0.996264)"/>
      </g>
     </g>
    </g>
    <g id="xtick_3">
     <g id="line2d_3">
      <path d="M 226.806389 307.584 
L 226.806389 41.472 
" clip-path="url(#pbd2b91bdeb)" style="fill: none; stroke: #ffffff; stroke-linecap: round"/>
     </g>
     <g id="text_3">
      <!-- $\mathdefault{0.0}$ -->
      <g style="fill: #262626" transform="translate(219.804851 324.694347) scale(0.11 -0.11)">
       <use xlink:href="#CMR17-30" transform="scale(0.996264)"/>
       <use xlink:href="#CMMI12-3a" transform="translate(45.690477 0) scale(0.996264)"/>
       <use xlink:href="#CMR17-30" transform="translate(72.787654 0) scale(0.996264)"/>
      </g>
     </g>
    </g>
    <g id="xtick_4">
     <g id="line2d_4">
      <path d="M 301.019315 307.584 
L 301.019315 41.472 
" clip-path="url(#pbd2b91bdeb)" style="fill: none; stroke: #ffffff; stroke-linecap: round"/>
     </g>
     <g id="text_4">
      <!-- $\mathdefault{0.5}$ -->
      <g style="fill: #262626" transform="translate(294.017777 324.694347) scale(0.11 -0.11)">
       <use xlink:href="#CMR17-30" transform="scale(0.996264)"/>
       <use xlink:href="#CMMI12-3a" transform="translate(45.690477 0) scale(0.996264)"/>
       <use xlink:href="#CMR17-35" transform="translate(72.787654 0) scale(0.996264)"/>
      </g>
     </g>
    </g>
    <g id="xtick_5">
     <g id="line2d_5">
      <path d="M 375.232242 307.584 
L 375.232242 41.472 
" clip-path="url(#pbd2b91bdeb)" style="fill: none; stroke: #ffffff; stroke-linecap: round"/>
     </g>
     <g id="text_5">
      <!-- $\mathdefault{1.0}$ -->
      <g style="fill: #262626" transform="translate(368.230703 324.694347) scale(0.11 -0.11)">
       <use xlink:href="#CMR17-31" transform="scale(0.996264)"/>
       <use xlink:href="#CMMI12-3a" transform="translate(45.690477 0) scale(0.996264)"/>
       <use xlink:href="#CMR17-30" transform="translate(72.787654 0) scale(0.996264)"/>
      </g>
     </g>
    </g>
   </g>
   <g id="matplotlib.axis_2">
    <g id="ytick_1">
     <g id="line2d_6">
      <path d="M 57.6 291.705543 
L 414.72 291.705543 
" clip-path="url(#pbd2b91bdeb)" style="fill: none; stroke: #ffffff; stroke-linecap: round"/>
     </g>
     <g id="text_6">
      <!-- $\mathdefault{−1.0}$ -->
      <g style="fill: #262626" transform="translate(25.573315 295.510716) scale(0.11 -0.11)">
       <use xlink:href="#CMSY10-0" transform="scale(0.996264)"/>
       <use xlink:href="#CMR17-31" transform="translate(77.487468 0) scale(0.996264)"/>
       <use xlink:href="#CMMI12-3a" transform="translate(123.177945 0) scale(0.996264)"/>
       <use xlink:href="#CMR17-30" transform="translate(150.275122 0) scale(0.996264)"/>
      </g>
     </g>
    </g>
    <g id="ytick_2">
     <g id="line2d_7">
      <path d="M 57.6 234.332872 
L 414.72 234.332872 
" clip-path="url(#pbd2b91bdeb)" style="fill: none; stroke: #ffffff; stroke-linecap: round"/>
     </g>
     <g id="text_7">
      <!-- $\mathdefault{−0.5}$ -->
      <g style="fill: #262626" transform="translate(25.573315 238.138045) scale(0.11 -0.11)">
       <use xlink:href="#CMSY10-0" transform="scale(0.996264)"/>
       <use xlink:href="#CMR17-30" transform="translate(77.487468 0) scale(0.996264)"/>
       <use xlink:href="#CMMI12-3a" transform="translate(123.177945 0) scale(0.996264)"/>
       <use xlink:href="#CMR17-35" transform="translate(150.275122 0) scale(0.996264)"/>
      </g>
     </g>
    </g>
    <g id="ytick_3">
     <g id="line2d_8">
      <path d="M 57.6 176.960201 
L 414.72 176.960201 
" clip-path="url(#pbd2b91bdeb)" style="fill: none; stroke: #ffffff; stroke-linecap: round"/>
     </g>
     <g id="text_8">
      <!-- $\mathdefault{0.0}$ -->
      <g style="fill: #262626" transform="translate(34.096924 180.765374) scale(0.11 -0.11)">
       <use xlink:href="#CMR17-30" transform="scale(0.996264)"/>
       <use xlink:href="#CMMI12-3a" transform="translate(45.690477 0) scale(0.996264)"/>
       <use xlink:href="#CMR17-30" transform="translate(72.787654 0) scale(0.996264)"/>
      </g>
     </g>
    </g>
    <g id="ytick_4">
     <g id="line2d_9">
      <path d="M 57.6 119.58753 
L 414.72 119.58753 
" clip-path="url(#pbd2b91bdeb)" style="fill: none; stroke: #ffffff; stroke-linecap: round"/>
     </g>
     <g id="text_9">
      <!-- $\mathdefault{0.5}$ -->
      <g style="fill: #262626" transform="translate(34.096924 123.392703) scale(0.11 -0.11)">
       <use xlink:href="#CMR17-30" transform="scale(0.996264)"/>
       <use xlink:href="#CMMI12-3a" transform="translate(45.690477 0) scale(0.996264)"/>
       <use xlink:href="#CMR17-35" transform="translate(72.787654 0) scale(0.996264)"/>
      </g>
     </g>
    </g>
    <g id="ytick_5">
     <g id="line2d_10">
      <path d="M 57.6 62.214859 
L 414.72 62.214859 
" clip-path="url(#pbd2b91bdeb)" style="fill: none; stroke: #ffffff; stroke-linecap: round"/>
     </g>
     <g id="text_10">
      <!-- $\mathdefault{1.0}$ -->
      <g style="fill: #262626" transform="translate(34.096924 66.020033) scale(0.11 -0.11)">
       <use xlink:href="#CMR17-31" transform="scale(0.996264)"/>
       <use xlink:href="#CMMI12-3a" transform="translate(45.690477 0) scale(0.996264)"/>
       <use xlink:href="#CMR17-30" transform="translate(72.787654 0) scale(0.996264)"/>
      </g>
     </g>
    </g>
   </g>
   <g id="line2d_11">
    <path d="M 157.65919 182.514113 
L 152.198838 173.7375 
M 271.616397 286.2665 
L 253.459292 293.406408 
M 354.060766 116.647579 
L 340.557302 107.438885 
M 79.105926 197.985 
L 76.341995 183.685728 
M 206.400519 115.406911 
L 209.937904 123.609547 
M 182.309425 125.517649 
L 209.937904 123.609547 
M 182.309425 125.517649 
L 206.400519 115.406911 
M 131.492615 106.18435 
L 123.92045 107.555242 
M 238.043793 232.120971 
L 243.377492 238.380645 
M 292.866209 145.084499 
L 275.639714 128.062366 
M 150.270528 175.918969 
L 152.198838 173.7375 
M 150.270528 175.918969 
L 157.65919 182.514113 
M 289.386666 188.897683 
L 282.987271 194.429853 
M 159.97654 203.14772 
L 164.562552 221.908293 
M 159.97654 203.14772 
L 157.65919 182.514113 
M 179.81967 228.76653 
L 164.562552 221.908293 
M 258.518587 242.132718 
L 270.332173 227.764726 
M 258.518587 242.132718 
L 243.377492 238.380645 
M 258.518587 242.132718 
L 238.043793 232.120971 
M 153.408643 175.737664 
L 152.198838 173.7375 
M 153.408643 175.737664 
L 157.65919 182.514113 
M 153.408643 175.737664 
L 150.270528 175.918969 
M 92.409443 127.011 
L 91.704407 127.5624 
M 211.671889 288.019572 
L 223.593857 292.024948 
M 285.103648 134.444162 
L 275.639714 128.062366 
M 285.103648 134.444162 
L 292.866209 145.084499 
M 139.168511 73.756933 
L 163.32254 65.149 
M 269.754684 139.142477 
L 275.639714 128.062366 
M 269.754684 139.142477 
L 292.866209 145.084499 
M 269.754684 139.142477 
L 285.103648 134.444162 
M 222.028264 112.894098 
L 240.945368 124.284301 
M 222.028264 112.894098 
L 209.937904 123.609547 
M 222.028264 112.894098 
L 206.400519 115.406911 
M 156.145779 150.965935 
L 151.150271 128.624764 
M 294.935296 147.160776 
L 292.866209 145.084499 
M 294.935296 147.160776 
L 285.103648 134.444162 
M 294.935296 147.160776 
L 269.754684 139.142477 
M 122.884118 101.813171 
L 123.92045 107.555242 
M 122.884118 101.813171 
L 131.492615 106.18435 
M 137.598812 64.975007 
L 163.32254 65.149 
M 137.598812 64.975007 
L 139.168511 73.756933 
M 183.478729 130.637534 
L 209.937904 123.609547 
M 183.478729 130.637534 
L 182.309425 125.517649 
M 163.922309 163.182443 
L 152.198838 173.7375 
M 163.922309 163.182443 
L 157.65919 182.514113 
M 163.922309 163.182443 
L 150.270528 175.918969 
M 163.922309 163.182443 
L 153.408643 175.737664 
M 273.169958 285.023639 
L 253.459292 293.406408 
M 273.169958 285.023639 
L 271.616397 286.2665 
M 254.719692 118.461452 
L 240.945368 124.284301 
M 358.547566 159.299863 
L 380.36874 152.986337 
M 225.865492 295.488 
L 223.593857 292.024948 
M 225.865492 295.488 
L 211.671889 288.019572 
M 285.107536 139.129503 
L 275.639714 128.062366 
M 285.107536 139.129503 
L 292.866209 145.084499 
M 285.107536 139.129503 
L 285.103648 134.444162 
M 285.107536 139.129503 
L 269.754684 139.142477 
M 285.107536 139.129503 
L 294.935296 147.160776 
M 163.736048 238.86707 
L 164.562552 221.908293 
M 163.736048 238.86707 
L 179.81967 228.76653 
M 276.220124 200.289173 
L 282.987271 194.429853 
M 276.220124 200.289173 
L 289.386666 188.897683 
M 286.03175 182.678063 
L 282.987271 194.429853 
M 286.03175 182.678063 
L 289.386666 188.897683 
M 286.03175 182.678063 
L 273.690016 167.516915 
M 286.03175 182.678063 
L 276.220124 200.289173 
M 97.467961 237.992791 
L 98.61898 228.715874 
M 368.089821 231.558628 
L 357.687983 236.309528 
M 210.245095 228.551255 
L 238.043793 232.120971 
M 342.521627 110.884077 
L 340.557302 107.438885 
M 342.521627 110.884077 
L 354.060766 116.647579 
M 207.774712 234.985259 
L 210.245095 228.551255 
M 73.832727 185.989826 
L 76.341995 183.685728 
M 73.832727 185.989826 
L 79.105926 197.985 
M 256.890166 230.433037 
L 270.332173 227.764726 
M 256.890166 230.433037 
L 243.377492 238.380645 
M 256.890166 230.433037 
L 238.043793 232.120971 
M 256.890166 230.433037 
L 258.518587 242.132718 
M 299.302483 169.616928 
L 289.386666 188.897683 
M 299.302483 169.616928 
L 273.690016 167.516915 
M 299.302483 169.616928 
L 286.03175 182.678063 
M 224.637612 226.243593 
L 243.377492 238.380645 
M 224.637612 226.243593 
L 238.043793 232.120971 
M 224.637612 226.243593 
L 210.245095 228.551255 
M 224.637612 226.243593 
L 207.774712 234.985259 
M 181.591688 213.329684 
L 164.562552 221.908293 
M 181.591688 213.329684 
L 159.97654 203.14772 
M 181.591688 213.329684 
L 179.81967 228.76653 
M 159.990424 130.905988 
L 151.150271 128.624764 
M 159.990424 130.905988 
L 182.309425 125.517649 
M 159.990424 130.905988 
L 156.145779 150.965935 
M 159.990424 130.905988 
L 183.478729 130.637534 
M 165.725474 204.445669 
L 164.562552 221.908293 
M 165.725474 204.445669 
L 157.65919 182.514113 
M 165.725474 204.445669 
L 159.97654 203.14772 
M 165.725474 204.445669 
L 181.591688 213.329684 
M 211.153453 235.156528 
L 238.043793 232.120971 
M 211.153453 235.156528 
L 210.245095 228.551255 
M 211.153453 235.156528 
L 207.774712 234.985259 
M 211.153453 235.156528 
L 224.637612 226.243593 
M 107.853138 112.024656 
L 123.92045 107.555242 
M 107.853138 112.024656 
L 131.492615 106.18435 
M 107.853138 112.024656 
L 91.704407 127.5624 
M 107.853138 112.024656 
L 92.409443 127.011 
M 107.853138 112.024656 
L 122.884118 101.813171 
M 355.083002 248.485462 
L 357.687983 236.309528 
M 355.083002 248.485462 
L 368.089821 231.558628 
M 222.414264 123.576865 
L 240.945368 124.284301 
M 222.414264 123.576865 
L 209.937904 123.609547 
M 222.414264 123.576865 
L 206.400519 115.406911 
M 222.414264 123.576865 
L 222.028264 112.894098 
M 236.544968 113.17838 
L 240.945368 124.284301 
M 236.544968 113.17838 
L 222.028264 112.894098 
M 236.544968 113.17838 
L 254.719692 118.461452 
M 236.544968 113.17838 
L 222.414264 123.576865 
M 364.976199 143.03288 
L 380.36874 152.986337 
M 364.976199 143.03288 
L 358.547566 159.299863 
M 288.06731 209.291312 
L 282.987271 194.429853 
M 288.06731 209.291312 
L 289.386666 188.897683 
M 288.06731 209.291312 
L 276.220124 200.289173 
M 286.539015 192.484761 
L 282.987271 194.429853 
M 286.539015 192.484761 
L 289.386666 188.897683 
M 286.539015 192.484761 
L 276.220124 200.289173 
M 286.539015 192.484761 
L 286.03175 182.678063 
M 286.539015 192.484761 
L 288.06731 209.291312 
M 174.83585 211.726408 
L 164.562552 221.908293 
M 174.83585 211.726408 
L 159.97654 203.14772 
M 174.83585 211.726408 
L 179.81967 228.76653 
M 174.83585 211.726408 
L 181.591688 213.329684 
M 174.83585 211.726408 
L 165.725474 204.445669 
M 87.78516 222.144518 
L 98.61898 228.715874 
M 87.78516 222.144518 
L 97.467961 237.992791 
M 183.417879 123.347383 
L 209.937904 123.609547 
M 183.417879 123.347383 
L 206.400519 115.406911 
M 183.417879 123.347383 
L 182.309425 125.517649 
M 183.417879 123.347383 
L 183.478729 130.637534 
M 183.417879 123.347383 
L 159.990424 130.905988 
L 159.990424 130.905988 
" clip-path="url(#pbd2b91bdeb)" style="fill: none; stroke: #4c72b0; stroke-width: 1.5; stroke-linecap: round"/>
   </g>
   <g id="line2d_12"/>
   <g id="line2d_13">
    <defs>
     <path id="m3f05c2f159" d="M 0 1.5 
C 0.397805 1.5 0.77937 1.341951 1.06066 1.06066 
C 1.341951 0.77937 1.5 0.397805 1.5 0 
C 1.5 -0.397805 1.341951 -0.77937 1.06066 -1.06066 
C 0.77937 -1.341951 0.397805 -1.5 0 -1.5 
C -0.397805 -1.5 -0.77937 -1.341951 -1.06066 -1.06066 
C -1.341951 -0.77937 -1.5 -0.397805 -1.5 0 
C -1.5 0.397805 -1.341951 0.77937 -1.06066 1.06066 
C -0.77937 1.341951 -0.397805 1.5 0 1.5 
z
" style="stroke: #55a868"/>
    </defs>
    <g clip-path="url(#pbd2b91bdeb)">
     <use xlink:href="#m3f05c2f159" x="253.459292" y="293.406408" style="fill: #55a868; stroke: #55a868"/>
     <use xlink:href="#m3f05c2f159" x="240.945368" y="124.284301" style="fill: #55a868; stroke: #55a868"/>
     <use xlink:href="#m3f05c2f159" x="270.332173" y="227.764726" style="fill: #55a868; stroke: #55a868"/>
     <use xlink:href="#m3f05c2f159" x="164.562552" y="221.908293" style="fill: #55a868; stroke: #55a868"/>
     <use xlink:href="#m3f05c2f159" x="398.487273" y="194.324301" style="fill: #55a868; stroke: #55a868"/>
     <use xlink:href="#m3f05c2f159" x="151.150271" y="128.624764" style="fill: #55a868; stroke: #55a868"/>
     <use xlink:href="#m3f05c2f159" x="209.937904" y="123.609547" style="fill: #55a868; stroke: #55a868"/>
     <use xlink:href="#m3f05c2f159" x="163.32254" y="65.149" style="fill: #55a868; stroke: #55a868"/>
     <use xlink:href="#m3f05c2f159" x="123.92045" y="107.555242" style="fill: #55a868; stroke: #55a868"/>
     <use xlink:href="#m3f05c2f159" x="152.198838" y="173.7375" style="fill: #55a868; stroke: #55a868"/>
     <use xlink:href="#m3f05c2f159" x="198.943793" y="61.716329" style="fill: #55a868; stroke: #55a868"/>
     <use xlink:href="#m3f05c2f159" x="155.786577" y="266.160674" style="fill: #55a868; stroke: #55a868"/>
     <use xlink:href="#m3f05c2f159" x="135.706862" y="150.629158" style="fill: #55a868; stroke: #55a868"/>
     <use xlink:href="#m3f05c2f159" x="340.557302" y="107.438885" style="fill: #55a868; stroke: #55a868"/>
     <use xlink:href="#m3f05c2f159" x="157.65919" y="182.514113" style="fill: #55a868; stroke: #55a868"/>
     <use xlink:href="#m3f05c2f159" x="243.377492" y="238.380645" style="fill: #55a868; stroke: #55a868"/>
     <use xlink:href="#m3f05c2f159" x="271.616397" y="286.2665" style="fill: #55a868; stroke: #55a868"/>
     <use xlink:href="#m3f05c2f159" x="76.341995" y="183.685728" style="fill: #55a868; stroke: #55a868"/>
     <use xlink:href="#m3f05c2f159" x="275.639714" y="128.062366" style="fill: #55a868; stroke: #55a868"/>
     <use xlink:href="#m3f05c2f159" x="354.060766" y="116.647579" style="fill: #55a868; stroke: #55a868"/>
     <use xlink:href="#m3f05c2f159" x="79.105926" y="197.985" style="fill: #55a868; stroke: #55a868"/>
     <use xlink:href="#m3f05c2f159" x="206.400519" y="115.406911" style="fill: #55a868; stroke: #55a868"/>
     <use xlink:href="#m3f05c2f159" x="182.309425" y="125.517649" style="fill: #55a868; stroke: #55a868"/>
     <use xlink:href="#m3f05c2f159" x="131.492615" y="106.18435" style="fill: #55a868; stroke: #55a868"/>
     <use xlink:href="#m3f05c2f159" x="252.705125" y="66.37218" style="fill: #55a868; stroke: #55a868"/>
     <use xlink:href="#m3f05c2f159" x="238.043793" y="232.120971" style="fill: #55a868; stroke: #55a868"/>
     <use xlink:href="#m3f05c2f159" x="315.010582" y="258.709886" style="fill: #55a868; stroke: #55a868"/>
     <use xlink:href="#m3f05c2f159" x="282.987271" y="194.429853" style="fill: #55a868; stroke: #55a868"/>
     <use xlink:href="#m3f05c2f159" x="292.866209" y="145.084499" style="fill: #55a868; stroke: #55a868"/>
     <use xlink:href="#m3f05c2f159" x="315.803909" y="80.693784" style="fill: #55a868; stroke: #55a868"/>
     <use xlink:href="#m3f05c2f159" x="356.88471" y="134.343507" style="fill: #55a868; stroke: #55a868"/>
     <use xlink:href="#m3f05c2f159" x="300.413183" y="217.392588" style="fill: #55a868; stroke: #55a868"/>
     <use xlink:href="#m3f05c2f159" x="143.417105" y="268.621038" style="fill: #55a868; stroke: #55a868"/>
     <use xlink:href="#m3f05c2f159" x="150.270528" y="175.918969" style="fill: #55a868; stroke: #55a868"/>
     <use xlink:href="#m3f05c2f159" x="289.386666" y="188.897683" style="fill: #55a868; stroke: #55a868"/>
     <use xlink:href="#m3f05c2f159" x="159.97654" y="203.14772" style="fill: #55a868; stroke: #55a868"/>
     <use xlink:href="#m3f05c2f159" x="179.81967" y="228.76653" style="fill: #55a868; stroke: #55a868"/>
     <use xlink:href="#m3f05c2f159" x="300.19363" y="277.645111" style="fill: #55a868; stroke: #55a868"/>
     <use xlink:href="#m3f05c2f159" x="277.553677" y="82.166248" style="fill: #55a868; stroke: #55a868"/>
     <use xlink:href="#m3f05c2f159" x="91.704407" y="127.5624" style="fill: #55a868; stroke: #55a868"/>
     <use xlink:href="#m3f05c2f159" x="258.518587" y="242.132718" style="fill: #55a868; stroke: #55a868"/>
     <use xlink:href="#m3f05c2f159" x="223.593857" y="292.024948" style="fill: #55a868; stroke: #55a868"/>
     <use xlink:href="#m3f05c2f159" x="153.408643" y="175.737664" style="fill: #55a868; stroke: #55a868"/>
     <use xlink:href="#m3f05c2f159" x="98.61898" y="228.715874" style="fill: #55a868; stroke: #55a868"/>
     <use xlink:href="#m3f05c2f159" x="92.409443" y="127.011" style="fill: #55a868; stroke: #55a868"/>
     <use xlink:href="#m3f05c2f159" x="123.824813" y="245.148975" style="fill: #55a868; stroke: #55a868"/>
     <use xlink:href="#m3f05c2f159" x="211.671889" y="288.019572" style="fill: #55a868; stroke: #55a868"/>
     <use xlink:href="#m3f05c2f159" x="285.103648" y="134.444162" style="fill: #55a868; stroke: #55a868"/>
     <use xlink:href="#m3f05c2f159" x="139.168511" y="73.756933" style="fill: #55a868; stroke: #55a868"/>
     <use xlink:href="#m3f05c2f159" x="269.754684" y="139.142477" style="fill: #55a868; stroke: #55a868"/>
     <use xlink:href="#m3f05c2f159" x="222.028264" y="112.894098" style="fill: #55a868; stroke: #55a868"/>
     <use xlink:href="#m3f05c2f159" x="372.802822" y="189.92464" style="fill: #55a868; stroke: #55a868"/>
     <use xlink:href="#m3f05c2f159" x="357.687983" y="236.309528" style="fill: #55a868; stroke: #55a868"/>
     <use xlink:href="#m3f05c2f159" x="156.145779" y="150.965935" style="fill: #55a868; stroke: #55a868"/>
     <use xlink:href="#m3f05c2f159" x="294.935296" y="147.160776" style="fill: #55a868; stroke: #55a868"/>
     <use xlink:href="#m3f05c2f159" x="122.884118" y="101.813171" style="fill: #55a868; stroke: #55a868"/>
     <use xlink:href="#m3f05c2f159" x="170.45483" y="285.114574" style="fill: #55a868; stroke: #55a868"/>
     <use xlink:href="#m3f05c2f159" x="137.598812" y="64.975007" style="fill: #55a868; stroke: #55a868"/>
     <use xlink:href="#m3f05c2f159" x="183.478729" y="130.637534" style="fill: #55a868; stroke: #55a868"/>
     <use xlink:href="#m3f05c2f159" x="163.922309" y="163.182443" style="fill: #55a868; stroke: #55a868"/>
     <use xlink:href="#m3f05c2f159" x="273.169958" y="285.023639" style="fill: #55a868; stroke: #55a868"/>
     <use xlink:href="#m3f05c2f159" x="380.36874" y="152.986337" style="fill: #55a868; stroke: #55a868"/>
     <use xlink:href="#m3f05c2f159" x="87.286225" y="159.977569" style="fill: #55a868; stroke: #55a868"/>
     <use xlink:href="#m3f05c2f159" x="232.897715" y="65.166896" style="fill: #55a868; stroke: #55a868"/>
     <use xlink:href="#m3f05c2f159" x="273.690016" y="167.516915" style="fill: #55a868; stroke: #55a868"/>
     <use xlink:href="#m3f05c2f159" x="254.719692" y="118.461452" style="fill: #55a868; stroke: #55a868"/>
     <use xlink:href="#m3f05c2f159" x="358.547566" y="159.299863" style="fill: #55a868; stroke: #55a868"/>
     <use xlink:href="#m3f05c2f159" x="225.865492" y="295.488" style="fill: #55a868; stroke: #55a868"/>
     <use xlink:href="#m3f05c2f159" x="315.675393" y="82.480299" style="fill: #55a868; stroke: #55a868"/>
     <use xlink:href="#m3f05c2f159" x="285.107536" y="139.129503" style="fill: #55a868; stroke: #55a868"/>
     <use xlink:href="#m3f05c2f159" x="163.736048" y="238.86707" style="fill: #55a868; stroke: #55a868"/>
     <use xlink:href="#m3f05c2f159" x="194.865495" y="53.568" style="fill: #55a868; stroke: #55a868"/>
     <use xlink:href="#m3f05c2f159" x="276.220124" y="200.289173" style="fill: #55a868; stroke: #55a868"/>
     <use xlink:href="#m3f05c2f159" x="286.03175" y="182.678063" style="fill: #55a868; stroke: #55a868"/>
     <use xlink:href="#m3f05c2f159" x="97.467961" y="237.992791" style="fill: #55a868; stroke: #55a868"/>
     <use xlink:href="#m3f05c2f159" x="368.089821" y="231.558628" style="fill: #55a868; stroke: #55a868"/>
     <use xlink:href="#m3f05c2f159" x="210.245095" y="228.551255" style="fill: #55a868; stroke: #55a868"/>
     <use xlink:href="#m3f05c2f159" x="342.521627" y="110.884077" style="fill: #55a868; stroke: #55a868"/>
     <use xlink:href="#m3f05c2f159" x="207.774712" y="234.985259" style="fill: #55a868; stroke: #55a868"/>
     <use xlink:href="#m3f05c2f159" x="73.832727" y="185.989826" style="fill: #55a868; stroke: #55a868"/>
     <use xlink:href="#m3f05c2f159" x="124.324883" y="257.965318" style="fill: #55a868; stroke: #55a868"/>
     <use xlink:href="#m3f05c2f159" x="282.441076" y="81.632081" style="fill: #55a868; stroke: #55a868"/>
     <use xlink:href="#m3f05c2f159" x="256.890166" y="230.433037" style="fill: #55a868; stroke: #55a868"/>
     <use xlink:href="#m3f05c2f159" x="299.302483" y="169.616928" style="fill: #55a868; stroke: #55a868"/>
     <use xlink:href="#m3f05c2f159" x="224.637612" y="226.243593" style="fill: #55a868; stroke: #55a868"/>
     <use xlink:href="#m3f05c2f159" x="181.591688" y="213.329684" style="fill: #55a868; stroke: #55a868"/>
     <use xlink:href="#m3f05c2f159" x="159.990424" y="130.905988" style="fill: #55a868; stroke: #55a868"/>
     <use xlink:href="#m3f05c2f159" x="165.725474" y="204.445669" style="fill: #55a868; stroke: #55a868"/>
     <use xlink:href="#m3f05c2f159" x="211.153453" y="235.156528" style="fill: #55a868; stroke: #55a868"/>
     <use xlink:href="#m3f05c2f159" x="107.853138" y="112.024656" style="fill: #55a868; stroke: #55a868"/>
     <use xlink:href="#m3f05c2f159" x="355.083002" y="248.485462" style="fill: #55a868; stroke: #55a868"/>
     <use xlink:href="#m3f05c2f159" x="222.414264" y="123.576865" style="fill: #55a868; stroke: #55a868"/>
     <use xlink:href="#m3f05c2f159" x="236.544968" y="113.17838" style="fill: #55a868; stroke: #55a868"/>
     <use xlink:href="#m3f05c2f159" x="364.976199" y="143.03288" style="fill: #55a868; stroke: #55a868"/>
     <use xlink:href="#m3f05c2f159" x="325.220087" y="254.143752" style="fill: #55a868; stroke: #55a868"/>
     <use xlink:href="#m3f05c2f159" x="288.06731" y="209.291312" style="fill: #55a868; stroke: #55a868"/>
     <use xlink:href="#m3f05c2f159" x="286.539015" y="192.484761" style="fill: #55a868; stroke: #55a868"/>
     <use xlink:href="#m3f05c2f159" x="174.83585" y="211.726408" style="fill: #55a868; stroke: #55a868"/>
     <use xlink:href="#m3f05c2f159" x="87.78516" y="222.144518" style="fill: #55a868; stroke: #55a868"/>
     <use xlink:href="#m3f05c2f159" x="183.417879" y="123.347383" style="fill: #55a868; stroke: #55a868"/>
    </g>
   </g>
   <g id="patch_3">
    <path d="M 57.6 307.584 
L 57.6 41.472 
" style="fill: none; stroke: #ffffff; stroke-width: 1.25; stroke-linejoin: miter; stroke-linecap: square"/>
   </g>
   <g id="patch_4">
    <path d="M 414.72 307.584 
L 414.72 41.472 
" style="fill: none; stroke: #ffffff; stroke-width: 1.25; stroke-linejoin: miter; stroke-linecap: square"/>
   </g>
   <g id="patch_5">
    <path d="M 57.6 307.584 
L 414.72 307.584 
" style="fill: none; stroke: #ffffff; stroke-width: 1.25; stroke-linejoin: miter; stroke-linecap: square"/>
   </g>
   <g id="patch_6">
    <path d="M 57.6 41.472 
L 414.72 41.472 
" style="fill: none; stroke: #ffffff; stroke-width: 1.25; stroke-linejoin: miter; stroke-linecap: square"/>
   </g>
   <g id="text_11">
    <!-- Vietoris-Rips filtration $\epsilon=0.2$ -->
    <g style="fill: #262626" transform="translate(158.633487 35.472) scale(0.12 -0.12)">
     <defs>
      <path id="CMR17-56" d="M 3776 3745 
C 3834 3886 3936 4160 4365 4160 
L 4365 4332 
C 4218 4319 4051 4319 3891 4319 
C 3738 4319 3475 4319 3328 4332 
L 3328 4160 
C 3648 4160 3661 3936 3661 3898 
C 3661 3827 3642 3783 3622 3732 
L 2362 446 
L 1043 3886 
C 1024 3931 1011 3963 1011 3994 
C 1011 4160 1267 4160 1402 4160 
L 1402 4319 
C 1197 4319 896 4319 685 4319 
C 518 4319 218 4319 64 4332 
L 64 4160 
C 435 4160 506 4135 582 3931 
L 2106 -26 
C 2138 -115 2144 -128 2214 -128 
C 2285 -128 2291 -115 2323 -26 
L 3776 3745 
z
" transform="scale(0.015625)"/>
      <path id="CMR17-69" d="M 992 3909 
C 992 4049 877 4170 730 4170 
C 589 4170 467 4056 467 3909 
C 467 3769 582 3648 730 3648 
C 870 3648 992 3763 992 3909 
z
M 243 2706 
L 243 2541 
C 602 2541 653 2502 653 2197 
L 653 427 
C 653 184 627 153 218 153 
L 218 -13 
C 371 0 646 0 806 0 
C 960 0 1222 0 1370 -13 
L 1370 153 
C 992 153 979 191 979 420 
L 979 2776 
L 243 2706 
z
" transform="scale(0.015625)"/>
      <path id="CMR17-65" d="M 2438 1472 
C 2464 1498 2464 1511 2464 1576 
C 2464 2238 2118 2816 1389 2816 
C 710 2816 173 2169 173 1383 
C 173 551 781 -64 1459 -64 
C 2176 -64 2458 607 2458 740 
C 2458 784 2419 784 2406 784 
C 2362 784 2355 771 2330 696 
C 2189 265 1837 51 1504 51 
C 1229 51 954 203 781 480 
C 582 803 582 1176 582 1472 
L 2438 1472 
z
M 589 1568 
C 634 2505 1126 2714 1382 2714 
C 1818 2714 2112 2297 2118 1568 
L 589 1568 
z
" transform="scale(0.015625)"/>
      <path id="CMR17-74" d="M 966 2560 
L 1862 2560 
L 1862 2725 
L 966 2725 
L 966 3904 
L 851 3904 
C 838 3245 614 2668 70 2668 
L 70 2560 
L 627 2560 
L 627 771 
C 627 650 627 -64 1370 -64 
C 1747 -64 1965 306 1965 777 
L 1965 1140 
L 1850 1140 
L 1850 783 
C 1850 344 1677 51 1408 51 
C 1222 51 966 178 966 758 
L 966 2560 
z
" transform="scale(0.015625)"/>
      <path id="CMR17-6f" d="M 2758 1356 
C 2758 2176 2163 2816 1466 2816 
C 768 2816 173 2176 173 1356 
C 173 551 768 -64 1466 -64 
C 2163 -64 2758 551 2758 1356 
z
M 1466 51 
C 1165 51 909 230 762 480 
C 602 767 582 1126 582 1408 
C 582 1677 595 2010 762 2298 
C 890 2509 1139 2714 1466 2714 
C 1754 2714 1997 2554 2150 2330 
C 2349 2029 2349 1607 2349 1408 
C 2349 1158 2336 775 2163 467 
C 1984 173 1709 51 1466 51 
z
" transform="scale(0.015625)"/>
      <path id="CMR17-72" d="M 960 1497 
C 960 2112 1222 2688 1702 2688 
C 1747 2688 1792 2682 1837 2662 
C 1837 2662 1696 2617 1696 2452 
C 1696 2298 1818 2234 1914 2234 
C 1990 2234 2131 2279 2131 2458 
C 2131 2663 1926 2790 1709 2790 
C 1222 2790 1011 2317 947 2093 
L 941 2093 
L 941 2790 
L 198 2720 
L 198 2554 
C 576 2554 634 2515 634 2208 
L 634 428 
C 634 184 608 153 198 153 
L 198 -13 
C 352 0 646 0 813 0 
C 998 0 1325 0 1498 -13 
L 1498 153 
C 1037 153 960 153 960 440 
L 960 1497 
z
" transform="scale(0.015625)"/>
      <path id="CMR17-73" d="M 1978 2697 
C 1978 2813 1971 2819 1933 2819 
C 1907 2819 1901 2813 1824 2717 
C 1805 2691 1747 2626 1728 2601 
C 1523 2819 1235 2819 1126 2819 
C 416 2819 160 2447 160 2076 
C 160 1498 813 1365 998 1325 
C 1402 1243 1542 1217 1677 1101 
C 1760 1025 1901 884 1901 654 
C 1901 384 1747 38 1158 38 
C 602 38 403 460 288 1021 
C 269 1110 269 1117 218 1117 
C 166 1117 160 1110 160 983 
L 160 63 
C 160 -51 166 -58 205 -58 
C 237 -58 243 -51 275 0 
C 314 57 410 211 448 276 
C 576 103 800 -64 1158 -64 
C 1792 -64 2131 283 2131 784 
C 2131 1112 1958 1285 1875 1362 
C 1683 1561 1459 1606 1190 1657 
C 838 1735 390 1825 390 2217 
C 390 2383 480 2737 1126 2737 
C 1811 2737 1850 2094 1862 1888 
C 1869 1856 1901 1849 1920 1849 
C 1978 1849 1978 1869 1978 1978 
L 1978 2697 
z
" transform="scale(0.015625)"/>
      <path id="CMR17-2d" d="M 1632 1216 
L 1632 1496 
L 26 1496 
L 26 1216 
L 1632 1216 
z
" transform="scale(0.015625)"/>
      <path id="CMR17-52" d="M 2509 2146 
C 3117 2268 3629 2676 3629 3186 
C 3629 3785 2950 4326 2054 4326 
L 333 4326 
L 333 4160 
C 774 4160 845 4160 845 3873 
L 845 415 
C 845 128 774 128 333 128 
L 333 -26 
C 518 -26 851 -26 1050 -26 
C 1248 -26 1581 -26 1766 -26 
L 1766 128 
C 1325 128 1254 128 1254 417 
L 1254 2112 
L 2003 2112 
C 2368 2112 2573 1964 2662 1881 
C 2918 1632 2918 1459 2918 1024 
C 2918 595 2918 377 3110 160 
C 3354 -102 3680 -128 3821 -128 
C 4294 -128 4365 396 4365 503 
C 4365 540 4365 585 4307 585 
C 4256 585 4250 547 4250 522 
C 4218 112 4032 -26 3834 -26 
C 3482 -26 3443 375 3405 764 
C 3386 898 3373 993 3360 1133 
C 3322 1452 3270 1917 2509 2146 
z
M 1984 2214 
L 1254 2214 
L 1254 3913 
C 1254 4129 1267 4160 1523 4160 
L 1990 4160 
C 2522 4160 3142 3977 3142 3190 
C 3142 2372 2464 2214 1984 2214 
z
" transform="scale(0.015625)"/>
      <path id="CMR17-70" d="M 1408 -1063 
C 998 -1063 973 -1037 973 -789 
L 973 402 
C 1158 134 1427 -38 1766 -38 
C 2406 -38 3053 523 3053 1388 
C 3053 2191 2496 2802 1837 2802 
C 1453 2802 1139 2592 960 2338 
L 960 2802 
L 198 2732 
L 198 2567 
C 576 2567 634 2528 634 2223 
L 634 -789 
C 634 -1031 608 -1063 198 -1063 
L 198 -1228 
C 352 -1216 634 -1216 800 -1216 
C 966 -1216 1254 -1216 1408 -1228 
L 1408 -1063 
z
M 973 2012 
C 973 2102 973 2235 1222 2471 
C 1254 2497 1472 2688 1792 2688 
C 2259 2688 2643 2108 2643 1382 
C 2643 656 2234 64 1728 64 
C 1498 64 1248 172 1056 472 
C 973 612 973 650 973 752 
L 973 2012 
z
" transform="scale(0.015625)"/>
      <path id="CMR17-c" d="M 2554 2764 
C 2400 2764 1926 2764 1805 2739 
C 1766 2725 1754 2725 1677 2725 
L 947 2725 
L 947 3469 
C 947 4073 1434 4352 1818 4352 
C 1939 4352 2214 4320 2355 4101 
C 2291 4101 2086 4101 2086 3878 
C 2086 3725 2189 3648 2317 3648 
C 2432 3648 2547 3712 2547 3885 
C 2547 4205 2240 4454 1843 4454 
C 1338 4454 634 4168 634 3469 
L 634 2725 
L 122 2725 
L 122 2560 
L 634 2560 
L 634 427 
C 634 184 608 153 198 153 
L 198 -13 
C 352 0 634 0 794 0 
C 960 0 1242 0 1395 -13 
L 1395 153 
C 986 153 960 178 960 427 
L 960 2560 
L 1901 2560 
C 2176 2560 2227 2502 2227 2222 
L 2227 427 
C 2227 184 2202 153 1792 153 
L 1792 -13 
C 1946 0 2227 0 2387 0 
C 2554 0 2835 0 2989 -13 
L 2989 153 
C 2579 153 2554 178 2554 427 
L 2554 2764 
z
" transform="scale(0.015625)"/>
      <path id="CMR17-6c" d="M 979 4396 
L 218 4326 
L 218 4160 
C 595 4160 653 4122 653 3817 
L 653 426 
C 653 184 627 153 218 153 
L 218 -13 
C 371 0 653 0 813 0 
C 979 0 1261 0 1414 -13 
L 1414 153 
C 1005 153 979 178 979 426 
L 979 4396 
z
" transform="scale(0.015625)"/>
      <path id="CMR17-61" d="M 2304 1653 
C 2304 2072 2304 2294 2035 2543 
C 1798 2752 1523 2816 1306 2816 
C 800 2816 435 2407 435 1971 
C 435 1728 627 1728 666 1728 
C 749 1728 896 1778 896 1954 
C 896 2112 774 2181 666 2181 
C 640 2181 608 2174 589 2168 
C 723 2592 1069 2714 1293 2714 
C 1613 2714 1965 2429 1965 1885 
L 1965 1600 
C 1587 1600 1133 1549 774 1357 
C 371 1133 256 813 256 570 
C 256 77 832 -64 1171 -64 
C 1523 -64 1850 139 1990 511 
C 2003 233 2182 -18 2464 -18 
C 2598 -18 2938 70 2938 567 
L 2938 920 
L 2822 920 
L 2822 562 
C 2822 178 2650 128 2566 128 
C 2304 128 2304 458 2304 738 
L 2304 1653 
z
M 1965 870 
C 1965 317 1568 38 1216 38 
C 896 38 646 275 646 570 
C 646 761 730 1100 1101 1305 
C 1408 1478 1760 1504 1965 1504 
L 1965 870 
z
" transform="scale(0.015625)"/>
      <path id="CMR17-6e" d="M 2656 1933 
C 2656 2259 2592 2790 1837 2790 
C 1331 2790 1069 2400 973 2144 
L 966 2144 
L 966 2790 
L 211 2720 
L 211 2554 
C 589 2554 646 2515 646 2208 
L 646 428 
C 646 184 621 153 211 153 
L 211 -13 
C 365 0 646 0 813 0 
C 979 0 1267 0 1421 -13 
L 1421 153 
C 1011 153 986 178 986 428 
L 986 1658 
C 986 2247 1344 2688 1792 2688 
C 2266 2688 2317 2266 2317 1958 
L 2317 428 
C 2317 184 2291 153 1882 153 
L 1882 -13 
C 2035 0 2317 0 2483 0 
C 2650 0 2938 0 3091 -13 
L 3091 153 
C 2682 153 2656 178 2656 428 
L 2656 1933 
z
" transform="scale(0.015625)"/>
      <path id="CMMI12-f" d="M 1862 1467 
C 1958 1467 2067 1467 2067 1569 
C 2067 1652 2003 1652 1888 1652 
L 851 1652 
C 1011 2226 1389 2573 1958 2573 
L 2144 2573 
C 2253 2573 2349 2573 2349 2675 
C 2349 2758 2278 2758 2163 2758 
L 1946 2758 
C 1158 2758 294 2131 294 1126 
C 294 416 774 -64 1408 -64 
C 1818 -64 2221 194 2221 258 
C 2221 296 2202 336 2163 336 
C 2144 336 2131 329 2099 304 
C 1856 142 1619 64 1427 64 
C 1088 64 730 290 730 918 
C 730 1040 742 1208 800 1467 
L 1862 1467 
z
" transform="scale(0.015625)"/>
      <path id="CMR17-3d" d="M 4115 2017 
C 4211 2017 4307 2017 4307 2125 
C 4307 2240 4198 2240 4090 2240 
L 512 2240 
C 403 2240 294 2240 294 2125 
C 294 2017 390 2017 486 2017 
L 4115 2017 
z
M 4090 896 
C 4198 896 4307 896 4307 1011 
C 4307 1119 4211 1119 4115 1119 
L 486 1119 
C 390 1119 294 1119 294 1011 
C 294 896 403 896 512 896 
L 4090 896 
z
" transform="scale(0.015625)"/>
      <path id="CMR17-32" d="M 2669 989 
L 2554 989 
C 2490 536 2438 459 2413 420 
C 2381 369 1920 369 1830 369 
L 602 369 
C 832 619 1280 1072 1824 1597 
C 2214 1967 2669 2402 2669 3035 
C 2669 3790 2067 4224 1395 4224 
C 691 4224 262 3604 262 3030 
C 262 2780 448 2748 525 2748 
C 589 2748 781 2787 781 3010 
C 781 3207 614 3264 525 3264 
C 486 3264 448 3258 422 3245 
C 544 3790 915 4058 1306 4058 
C 1862 4058 2227 3617 2227 3035 
C 2227 2479 1901 2000 1536 1584 
L 262 146 
L 262 0 
L 2515 0 
L 2669 989 
z
" transform="scale(0.015625)"/>
     </defs>
     <use xlink:href="#CMR17-56" transform="scale(0.996264)"/>
     <use xlink:href="#CMR17-69" transform="translate(69.07243 0) scale(0.996264)"/>
     <use xlink:href="#CMR17-65" transform="translate(93.943488 0) scale(0.996264)"/>
     <use xlink:href="#CMR17-74" transform="translate(134.429149 0) scale(0.996264)"/>
     <use xlink:href="#CMR17-6f" transform="translate(169.709917 0) scale(0.996264)"/>
     <use xlink:href="#CMR17-72" transform="translate(215.400394 0) scale(0.996264)"/>
     <use xlink:href="#CMR17-69" transform="translate(250.681161 0) scale(0.996264)"/>
     <use xlink:href="#CMR17-73" transform="translate(275.55222 0) scale(0.996264)"/>
     <use xlink:href="#CMR17-2d" transform="translate(311.353558 0) scale(0.996264)"/>
     <use xlink:href="#CMR17-52" transform="translate(341.429524 0) scale(0.996264)"/>
     <use xlink:href="#CMR17-69" transform="translate(409.220626 0) scale(0.996264)"/>
     <use xlink:href="#CMR17-70" transform="translate(434.091684 0) scale(0.996264)"/>
     <use xlink:href="#CMR17-73" transform="translate(484.987054 0) scale(0.996264)"/>
     <use xlink:href="#CMR17-c" transform="translate(550.864358 0) scale(0.996264)"/>
     <use xlink:href="#CMR17-6c" transform="translate(600.606582 0) scale(0.996264)"/>
     <use xlink:href="#CMR17-74" transform="translate(625.47764 0) scale(0.996264)"/>
     <use xlink:href="#CMR17-72" transform="translate(660.758408 0) scale(0.996264)"/>
     <use xlink:href="#CMR17-61" transform="translate(696.039176 0) scale(0.996264)"/>
     <use xlink:href="#CMR17-74" transform="translate(741.729653 0) scale(0.996264)"/>
     <use xlink:href="#CMR17-69" transform="translate(777.010421 0) scale(0.996264)"/>
     <use xlink:href="#CMR17-6f" transform="translate(801.881479 0) scale(0.996264)"/>
     <use xlink:href="#CMR17-6e" transform="translate(847.571956 0) scale(0.996264)"/>
     <use xlink:href="#CMMI12-f" transform="translate(928.543292 0) scale(0.996264)"/>
     <use xlink:href="#CMR17-3d" transform="translate(995.606259 0) scale(0.996264)"/>
     <use xlink:href="#CMR17-30" transform="translate(1094.995056 0) scale(0.996264)"/>
     <use xlink:href="#CMMI12-3a" transform="translate(1140.685533 0) scale(0.996264)"/>
     <use xlink:href="#CMR17-32" transform="translate(1167.782711 0) scale(0.996264)"/>
    </g>
   </g>
  </g>
 </g>
 <defs>
  <clipPath id="pbd2b91bdeb">
   <rect x="57.6" y="41.472" width="357.12" height="266.112"/>
  </clipPath>
 </defs>
</svg>
