<?xml version="1.0" encoding="utf-8" standalone="no"?>
<!DOCTYPE svg PUBLIC "-//W3C//DTD SVG 1.1//EN"
  "http://www.w3.org/Graphics/SVG/1.1/DTD/svg11.dtd">
<svg xmlns:xlink="http://www.w3.org/1999/xlink" width="460.8pt" height="345.6pt" viewBox="0 0 460.8 345.6" xmlns="http://www.w3.org/2000/svg" version="1.1">
 <metadata>
  <rdf:RDF xmlns:dc="http://purl.org/dc/elements/1.1/" xmlns:cc="http://creativecommons.org/ns#" xmlns:rdf="http://www.w3.org/1999/02/22-rdf-syntax-ns#">
   <cc:Work>
    <dc:type rdf:resource="http://purl.org/dc/dcmitype/StillImage"/>
    <dc:date>2022-10-15T15:58:06.527655</dc:date>
    <dc:format>image/svg+xml</dc:format>
    <dc:creator>
     <cc:Agent>
      <dc:title>Matplotlib v3.6.0, https://matplotlib.org/</dc:title>
     </cc:Agent>
    </dc:creator>
   </cc:Work>
  </rdf:RDF>
 </metadata>
 <defs>
  <style type="text/css">*{stroke-linejoin: round; stroke-linecap: butt}</style>
 </defs>
 <g id="figure_1">
  <g id="patch_1">
   <path d="M 0 345.6 
L 460.8 345.6 
L 460.8 0 
L 0 0 
z
" style="fill: #ffffff"/>
  </g>
  <g id="axes_1">
   <g id="patch_2">
    <path d="M 57.6 307.584 
L 414.72 307.584 
L 414.72 41.472 
L 57.6 41.472 
z
" style="fill: #eaeaf2"/>
   </g>
   <g id="matplotlib.axis_1">
    <g id="xtick_1">
     <g id="line2d_1">
      <path d="M 87.36 307.584 
L 87.36 41.472 
" clip-path="url(#pa6dd7a7987)" style="fill: none; stroke: #ffffff; stroke-linecap: round"/>
     </g>
     <g id="text_1">
      <!-- $\mathdefault{0.0}$ -->
      <g style="fill: #262626" transform="translate(80.358462 324.694347) scale(0.11 -0.11)">
       <defs>
        <path id="CMR17-30" d="M 2688 2025 
C 2688 2416 2682 3080 2413 3591 
C 2176 4039 1798 4198 1466 4198 
C 1158 4198 768 4058 525 3597 
C 269 3118 243 2524 243 2025 
C 243 1661 250 1106 448 619 
C 723 -39 1216 -128 1466 -128 
C 1760 -128 2208 -7 2470 600 
C 2662 1042 2688 1559 2688 2025 
z
M 1466 -26 
C 1056 -26 813 325 723 812 
C 653 1188 653 1738 653 2096 
C 653 2588 653 2997 736 3387 
C 858 3929 1216 4096 1466 4096 
C 1728 4096 2067 3923 2189 3400 
C 2272 3036 2278 2607 2278 2096 
C 2278 1680 2278 1169 2202 792 
C 2067 95 1690 -26 1466 -26 
z
" transform="scale(0.015625)"/>
        <path id="CMMI12-3a" d="M 1178 307 
C 1178 492 1024 619 870 619 
C 685 619 557 466 557 313 
C 557 128 710 0 864 0 
C 1050 0 1178 153 1178 307 
z
" transform="scale(0.015625)"/>
       </defs>
       <use xlink:href="#CMR17-30" transform="scale(0.996264)"/>
       <use xlink:href="#CMMI12-3a" transform="translate(45.690477 0) scale(0.996264)"/>
       <use xlink:href="#CMR17-30" transform="translate(72.787654 0) scale(0.996264)"/>
      </g>
     </g>
    </g>
    <g id="xtick_2">
     <g id="line2d_2">
      <path d="M 141.794723 307.584 
L 141.794723 41.472 
" clip-path="url(#pa6dd7a7987)" style="fill: none; stroke: #ffffff; stroke-linecap: round"/>
     </g>
     <g id="text_2">
      <!-- $\mathdefault{0.1}$ -->
      <g style="fill: #262626" transform="translate(134.793185 324.694347) scale(0.11 -0.11)">
       <defs>
        <path id="CMR17-31" d="M 1702 4058 
C 1702 4192 1696 4192 1606 4192 
C 1357 3916 979 3827 621 3827 
C 602 3827 570 3827 563 3808 
C 557 3795 557 3782 557 3648 
C 755 3648 1088 3686 1344 3839 
L 1344 461 
C 1344 236 1331 160 781 160 
L 589 160 
L 589 0 
C 896 0 1216 0 1523 0 
C 1830 0 2150 0 2458 0 
L 2458 160 
L 2266 160 
C 1715 160 1702 230 1702 458 
L 1702 4058 
z
" transform="scale(0.015625)"/>
       </defs>
       <use xlink:href="#CMR17-30" transform="scale(0.996264)"/>
       <use xlink:href="#CMMI12-3a" transform="translate(45.690477 0) scale(0.996264)"/>
       <use xlink:href="#CMR17-31" transform="translate(72.787654 0) scale(0.996264)"/>
      </g>
     </g>
    </g>
    <g id="xtick_3">
     <g id="line2d_3">
      <path d="M 196.229447 307.584 
L 196.229447 41.472 
" clip-path="url(#pa6dd7a7987)" style="fill: none; stroke: #ffffff; stroke-linecap: round"/>
     </g>
     <g id="text_3">
      <!-- $\mathdefault{0.2}$ -->
      <g style="fill: #262626" transform="translate(189.227909 324.694347) scale(0.11 -0.11)">
       <defs>
        <path id="CMR17-32" d="M 2669 989 
L 2554 989 
C 2490 536 2438 459 2413 420 
C 2381 369 1920 369 1830 369 
L 602 369 
C 832 619 1280 1072 1824 1597 
C 2214 1967 2669 2402 2669 3035 
C 2669 3790 2067 4224 1395 4224 
C 691 4224 262 3604 262 3030 
C 262 2780 448 2748 525 2748 
C 589 2748 781 2787 781 3010 
C 781 3207 614 3264 525 3264 
C 486 3264 448 3258 422 3245 
C 544 3790 915 4058 1306 4058 
C 1862 4058 2227 3617 2227 3035 
C 2227 2479 1901 2000 1536 1584 
L 262 146 
L 262 0 
L 2515 0 
L 2669 989 
z
" transform="scale(0.015625)"/>
       </defs>
       <use xlink:href="#CMR17-30" transform="scale(0.996264)"/>
       <use xlink:href="#CMMI12-3a" transform="translate(45.690477 0) scale(0.996264)"/>
       <use xlink:href="#CMR17-32" transform="translate(72.787654 0) scale(0.996264)"/>
      </g>
     </g>
    </g>
    <g id="xtick_4">
     <g id="line2d_4">
      <path d="M 250.66417 307.584 
L 250.66417 41.472 
" clip-path="url(#pa6dd7a7987)" style="fill: none; stroke: #ffffff; stroke-linecap: round"/>
     </g>
     <g id="text_4">
      <!-- $\mathdefault{0.3}$ -->
      <g style="fill: #262626" transform="translate(243.662632 324.694347) scale(0.11 -0.11)">
       <defs>
        <path id="CMR17-33" d="M 1414 2157 
C 1984 2157 2234 1662 2234 1090 
C 2234 320 1824 25 1453 25 
C 1114 25 563 194 390 693 
C 422 680 454 680 486 680 
C 640 680 755 782 755 948 
C 755 1133 614 1216 486 1216 
C 378 1216 211 1165 211 926 
C 211 335 787 -128 1466 -128 
C 2176 -128 2720 430 2720 1085 
C 2720 1707 2208 2157 1600 2227 
C 2086 2328 2554 2756 2554 3329 
C 2554 3820 2048 4179 1472 4179 
C 890 4179 378 3829 378 3329 
C 378 3110 544 3072 627 3072 
C 762 3072 877 3155 877 3321 
C 877 3486 762 3569 627 3569 
C 602 3569 570 3569 544 3557 
C 730 3959 1235 4032 1459 4032 
C 1683 4032 2106 3925 2106 3320 
C 2106 3143 2080 2828 1862 2550 
C 1670 2304 1453 2304 1242 2284 
C 1210 2284 1062 2269 1037 2269 
C 992 2263 966 2257 966 2208 
C 966 2163 973 2157 1101 2157 
L 1414 2157 
z
" transform="scale(0.015625)"/>
       </defs>
       <use xlink:href="#CMR17-30" transform="scale(0.996264)"/>
       <use xlink:href="#CMMI12-3a" transform="translate(45.690477 0) scale(0.996264)"/>
       <use xlink:href="#CMR17-33" transform="translate(72.787654 0) scale(0.996264)"/>
      </g>
     </g>
    </g>
    <g id="xtick_5">
     <g id="line2d_5">
      <path d="M 305.098893 307.584 
L 305.098893 41.472 
" clip-path="url(#pa6dd7a7987)" style="fill: none; stroke: #ffffff; stroke-linecap: round"/>
     </g>
     <g id="text_5">
      <!-- $\mathdefault{0.4}$ -->
      <g style="fill: #262626" transform="translate(298.097355 324.694347) scale(0.11 -0.11)">
       <defs>
        <path id="CMR17-34" d="M 2150 4122 
C 2150 4256 2144 4256 2029 4256 
L 128 1254 
L 128 1088 
L 1779 1088 
L 1779 457 
C 1779 224 1766 160 1318 160 
L 1197 160 
L 1197 0 
C 1402 0 1747 0 1965 0 
C 2182 0 2528 0 2733 0 
L 2733 160 
L 2611 160 
C 2163 160 2150 224 2150 457 
L 2150 1088 
L 2803 1088 
L 2803 1254 
L 2150 1254 
L 2150 4122 
z
M 1798 3703 
L 1798 1254 
L 256 1254 
L 1798 3703 
z
" transform="scale(0.015625)"/>
       </defs>
       <use xlink:href="#CMR17-30" transform="scale(0.996264)"/>
       <use xlink:href="#CMMI12-3a" transform="translate(45.690477 0) scale(0.996264)"/>
       <use xlink:href="#CMR17-34" transform="translate(72.787654 0) scale(0.996264)"/>
      </g>
     </g>
    </g>
    <g id="xtick_6">
     <g id="line2d_6">
      <path d="M 359.533617 307.584 
L 359.533617 41.472 
" clip-path="url(#pa6dd7a7987)" style="fill: none; stroke: #ffffff; stroke-linecap: round"/>
     </g>
     <g id="text_6">
      <!-- $\mathdefault{0.5}$ -->
      <g style="fill: #262626" transform="translate(352.532079 324.694347) scale(0.11 -0.11)">
       <defs>
        <path id="CMR17-35" d="M 730 3692 
C 794 3666 1056 3584 1325 3584 
C 1920 3584 2246 3911 2432 4100 
C 2432 4157 2432 4192 2394 4192 
C 2387 4192 2374 4192 2323 4163 
C 2099 4058 1837 3973 1517 3973 
C 1325 3973 1037 3999 723 4139 
C 653 4171 640 4171 634 4171 
C 602 4171 595 4164 595 4037 
L 595 2203 
C 595 2089 595 2057 659 2057 
C 691 2057 704 2070 736 2114 
C 941 2401 1222 2522 1542 2522 
C 1766 2522 2246 2382 2246 1289 
C 2246 1085 2246 715 2054 421 
C 1894 159 1645 25 1370 25 
C 947 25 518 320 403 814 
C 429 807 480 795 506 795 
C 589 795 749 840 749 1038 
C 749 1210 627 1280 506 1280 
C 358 1280 262 1190 262 1011 
C 262 454 704 -128 1382 -128 
C 2042 -128 2669 440 2669 1264 
C 2669 2030 2170 2624 1549 2624 
C 1222 2624 947 2503 730 2274 
L 730 3692 
z
" transform="scale(0.015625)"/>
       </defs>
       <use xlink:href="#CMR17-30" transform="scale(0.996264)"/>
       <use xlink:href="#CMMI12-3a" transform="translate(45.690477 0) scale(0.996264)"/>
       <use xlink:href="#CMR17-35" transform="translate(72.787654 0) scale(0.996264)"/>
      </g>
     </g>
    </g>
    <g id="xtick_7">
     <g id="line2d_7">
      <path d="M 413.96834 307.584 
L 413.96834 41.472 
" clip-path="url(#pa6dd7a7987)" style="fill: none; stroke: #ffffff; stroke-linecap: round"/>
     </g>
     <g id="text_7">
      <!-- $\mathdefault{0.6}$ -->
      <g style="fill: #262626" transform="translate(406.966802 324.694347) scale(0.11 -0.11)">
       <defs>
        <path id="CMR17-36" d="M 678 2176 
C 678 3690 1395 4032 1811 4032 
C 1946 4032 2272 4009 2400 3776 
C 2298 3776 2106 3776 2106 3553 
C 2106 3381 2246 3323 2336 3323 
C 2394 3323 2566 3348 2566 3560 
C 2566 3954 2246 4179 1805 4179 
C 1043 4179 243 3390 243 1984 
C 243 253 966 -128 1478 -128 
C 2099 -128 2688 427 2688 1283 
C 2688 2081 2170 2662 1517 2662 
C 1126 2662 838 2407 678 1960 
L 678 2176 
z
M 1478 25 
C 691 25 691 1200 691 1436 
C 691 1896 909 2560 1504 2560 
C 1613 2560 1926 2560 2138 2120 
C 2253 1870 2253 1609 2253 1289 
C 2253 944 2253 690 2118 434 
C 1978 171 1773 25 1478 25 
z
" transform="scale(0.015625)"/>
       </defs>
       <use xlink:href="#CMR17-30" transform="scale(0.996264)"/>
       <use xlink:href="#CMMI12-3a" transform="translate(45.690477 0) scale(0.996264)"/>
       <use xlink:href="#CMR17-36" transform="translate(72.787654 0) scale(0.996264)"/>
      </g>
     </g>
    </g>
   </g>
   <g id="matplotlib.axis_2">
    <g id="ytick_1">
     <g id="line2d_8">
      <path d="M 57.6 307.584 
L 414.72 307.584 
" clip-path="url(#pa6dd7a7987)" style="fill: none; stroke: #ffffff; stroke-linecap: round"/>
     </g>
     <g id="text_8">
      <!-- $\mathdefault{0}$ -->
      <g style="fill: #262626" transform="translate(42.620533 311.389173) scale(0.11 -0.11)">
       <use xlink:href="#CMR17-30" transform="scale(0.996264)"/>
      </g>
     </g>
    </g>
    <g id="ytick_2">
     <g id="line2d_9">
      <path d="M 57.6 261.702621 
L 414.72 261.702621 
" clip-path="url(#pa6dd7a7987)" style="fill: none; stroke: #ffffff; stroke-linecap: round"/>
     </g>
     <g id="text_9">
      <!-- $\mathdefault{20}$ -->
      <g style="fill: #262626" transform="translate(37.141065 265.507794) scale(0.11 -0.11)">
       <use xlink:href="#CMR17-32" transform="scale(0.996264)"/>
       <use xlink:href="#CMR17-30" transform="translate(45.690477 0) scale(0.996264)"/>
      </g>
     </g>
    </g>
    <g id="ytick_3">
     <g id="line2d_10">
      <path d="M 57.6 215.821241 
L 414.72 215.821241 
" clip-path="url(#pa6dd7a7987)" style="fill: none; stroke: #ffffff; stroke-linecap: round"/>
     </g>
     <g id="text_10">
      <!-- $\mathdefault{40}$ -->
      <g style="fill: #262626" transform="translate(37.141065 219.626415) scale(0.11 -0.11)">
       <use xlink:href="#CMR17-34" transform="scale(0.996264)"/>
       <use xlink:href="#CMR17-30" transform="translate(45.690477 0) scale(0.996264)"/>
      </g>
     </g>
    </g>
    <g id="ytick_4">
     <g id="line2d_11">
      <path d="M 57.6 169.939862 
L 414.72 169.939862 
" clip-path="url(#pa6dd7a7987)" style="fill: none; stroke: #ffffff; stroke-linecap: round"/>
     </g>
     <g id="text_11">
      <!-- $\mathdefault{60}$ -->
      <g style="fill: #262626" transform="translate(37.141065 173.745035) scale(0.11 -0.11)">
       <use xlink:href="#CMR17-36" transform="scale(0.996264)"/>
       <use xlink:href="#CMR17-30" transform="translate(45.690477 0) scale(0.996264)"/>
      </g>
     </g>
    </g>
    <g id="ytick_5">
     <g id="line2d_12">
      <path d="M 57.6 124.058483 
L 414.72 124.058483 
" clip-path="url(#pa6dd7a7987)" style="fill: none; stroke: #ffffff; stroke-linecap: round"/>
     </g>
     <g id="text_12">
      <!-- $\mathdefault{80}$ -->
      <g style="fill: #262626" transform="translate(37.141065 127.863656) scale(0.11 -0.11)">
       <defs>
        <path id="CMR17-38" d="M 1741 2264 
C 2144 2467 2554 2773 2554 3263 
C 2554 3841 1990 4179 1472 4179 
C 890 4179 378 3759 378 3180 
C 378 3021 416 2747 666 2505 
C 730 2442 998 2251 1171 2130 
C 883 1983 211 1634 211 934 
C 211 279 838 -128 1459 -128 
C 2144 -128 2720 362 2720 1010 
C 2720 1590 2330 1857 2074 2029 
L 1741 2264 
z
M 902 2822 
C 851 2854 595 3051 595 3351 
C 595 3739 998 4032 1459 4032 
C 1965 4032 2336 3676 2336 3262 
C 2336 2669 1670 2331 1638 2331 
C 1632 2331 1626 2331 1574 2370 
L 902 2822 
z
M 2080 1519 
C 2176 1449 2483 1240 2483 851 
C 2483 381 2010 25 1472 25 
C 890 25 448 438 448 940 
C 448 1443 838 1862 1280 2060 
L 2080 1519 
z
" transform="scale(0.015625)"/>
       </defs>
       <use xlink:href="#CMR17-38" transform="scale(0.996264)"/>
       <use xlink:href="#CMR17-30" transform="translate(45.690477 0) scale(0.996264)"/>
      </g>
     </g>
    </g>
    <g id="ytick_6">
     <g id="line2d_13">
      <path d="M 57.6 78.177103 
L 414.72 78.177103 
" clip-path="url(#pa6dd7a7987)" style="fill: none; stroke: #ffffff; stroke-linecap: round"/>
     </g>
     <g id="text_13">
      <!-- $\mathdefault{100}$ -->
      <g style="fill: #262626" transform="translate(31.661598 81.982277) scale(0.11 -0.11)">
       <use xlink:href="#CMR17-31" transform="scale(0.996264)"/>
       <use xlink:href="#CMR17-30" transform="translate(45.690477 0) scale(0.996264)"/>
       <use xlink:href="#CMR17-30" transform="translate(91.380954 0) scale(0.996264)"/>
      </g>
     </g>
    </g>
   </g>
   <g id="patch_3">
    <path d="M 87.36 44.683697 
L 414.72 44.683697 
L 414.72 42.848441 
L 87.36 42.848441 
z
" clip-path="url(#pa6dd7a7987)" style="fill: #e41a1c; opacity: 0.6"/>
   </g>
   <g id="patch_4">
    <path d="M 87.36 46.977766 
L 241.763154 46.977766 
L 241.763154 45.14251 
L 87.36 45.14251 
z
" clip-path="url(#pa6dd7a7987)" style="fill: #e41a1c; opacity: 0.6"/>
   </g>
   <g id="patch_5">
    <path d="M 87.36 49.271834 
L 239.149195 49.271834 
L 239.149195 47.436579 
L 87.36 47.436579 
z
" clip-path="url(#pa6dd7a7987)" style="fill: #e41a1c; opacity: 0.6"/>
   </g>
   <g id="patch_6">
    <path d="M 87.36 51.565903 
L 236.847064 51.565903 
L 236.847064 49.730648 
L 87.36 49.730648 
z
" clip-path="url(#pa6dd7a7987)" style="fill: #e41a1c; opacity: 0.6"/>
   </g>
   <g id="patch_7">
    <path d="M 87.36 53.859972 
L 233.242706 53.859972 
L 233.242706 52.024717 
L 87.36 52.024717 
z
" clip-path="url(#pa6dd7a7987)" style="fill: #e41a1c; opacity: 0.6"/>
   </g>
   <g id="patch_8">
    <path d="M 87.36 56.154041 
L 220.081462 56.154041 
L 220.081462 54.318786 
L 87.36 54.318786 
z
" clip-path="url(#pa6dd7a7987)" style="fill: #e41a1c; opacity: 0.6"/>
   </g>
   <g id="patch_9">
    <path d="M 87.36 58.44811 
L 215.930953 58.44811 
L 215.930953 56.612855 
L 87.36 56.612855 
z
" clip-path="url(#pa6dd7a7987)" style="fill: #e41a1c; opacity: 0.6"/>
   </g>
   <g id="patch_10">
    <path d="M 87.36 60.742179 
L 215.42598 60.742179 
L 215.42598 58.906924 
L 87.36 58.906924 
z
" clip-path="url(#pa6dd7a7987)" style="fill: #e41a1c; opacity: 0.6"/>
   </g>
   <g id="patch_11">
    <path d="M 87.36 63.036248 
L 212.956266 63.036248 
L 212.956266 61.200993 
L 87.36 61.200993 
z
" clip-path="url(#pa6dd7a7987)" style="fill: #e41a1c; opacity: 0.6"/>
   </g>
   <g id="patch_12">
    <path d="M 87.36 65.330317 
L 209.312235 65.330317 
L 209.312235 63.495062 
L 87.36 63.495062 
z
" clip-path="url(#pa6dd7a7987)" style="fill: #e41a1c; opacity: 0.6"/>
   </g>
   <g id="patch_13">
    <path d="M 87.36 67.624386 
L 206.777974 67.624386 
L 206.777974 65.789131 
L 87.36 65.789131 
z
" clip-path="url(#pa6dd7a7987)" style="fill: #e41a1c; opacity: 0.6"/>
   </g>
   <g id="patch_14">
    <path d="M 87.36 69.918455 
L 206.309819 69.918455 
L 206.309819 68.0832 
L 87.36 68.0832 
z
" clip-path="url(#pa6dd7a7987)" style="fill: #e41a1c; opacity: 0.6"/>
   </g>
   <g id="patch_15">
    <path d="M 87.36 72.212524 
L 205.338309 72.212524 
L 205.338309 70.377269 
L 87.36 70.377269 
z
" clip-path="url(#pa6dd7a7987)" style="fill: #e41a1c; opacity: 0.6"/>
   </g>
   <g id="patch_16">
    <path d="M 87.36 74.506593 
L 200.122804 74.506593 
L 200.122804 72.671338 
L 87.36 72.671338 
z
" clip-path="url(#pa6dd7a7987)" style="fill: #e41a1c; opacity: 0.6"/>
   </g>
   <g id="patch_17">
    <path d="M 87.36 76.800662 
L 195.088352 76.800662 
L 195.088352 74.965407 
L 87.36 74.965407 
z
" clip-path="url(#pa6dd7a7987)" style="fill: #e41a1c; opacity: 0.6"/>
   </g>
   <g id="patch_18">
    <path d="M 87.36 79.094731 
L 194.044372 79.094731 
L 194.044372 77.259476 
L 87.36 77.259476 
z
" clip-path="url(#pa6dd7a7987)" style="fill: #e41a1c; opacity: 0.6"/>
   </g>
   <g id="patch_19">
    <path d="M 87.36 81.3888 
L 192.468194 81.3888 
L 192.468194 79.553545 
L 87.36 79.553545 
z
" clip-path="url(#pa6dd7a7987)" style="fill: #e41a1c; opacity: 0.6"/>
   </g>
   <g id="patch_20">
    <path d="M 87.36 83.682869 
L 192.345578 83.682869 
L 192.345578 81.847614 
L 87.36 81.847614 
z
" clip-path="url(#pa6dd7a7987)" style="fill: #e41a1c; opacity: 0.6"/>
   </g>
   <g id="patch_21">
    <path d="M 87.36 85.976938 
L 192.140358 85.976938 
L 192.140358 84.141683 
L 87.36 84.141683 
z
" clip-path="url(#pa6dd7a7987)" style="fill: #e41a1c; opacity: 0.6"/>
   </g>
   <g id="patch_22">
    <path d="M 87.36 88.271007 
L 189.811132 88.271007 
L 189.811132 86.435752 
L 87.36 86.435752 
z
" clip-path="url(#pa6dd7a7987)" style="fill: #e41a1c; opacity: 0.6"/>
   </g>
   <g id="patch_23">
    <path d="M 87.36 90.565076 
L 189.040069 90.565076 
L 189.040069 88.729821 
L 87.36 88.729821 
z
" clip-path="url(#pa6dd7a7987)" style="fill: #e41a1c; opacity: 0.6"/>
   </g>
   <g id="patch_24">
    <path d="M 87.36 92.859145 
L 185.613252 92.859145 
L 185.613252 91.02389 
L 87.36 91.02389 
z
" clip-path="url(#pa6dd7a7987)" style="fill: #e41a1c; opacity: 0.6"/>
   </g>
   <g id="patch_25">
    <path d="M 87.36 95.153214 
L 183.841577 95.153214 
L 183.841577 93.317959 
L 87.36 93.317959 
z
" clip-path="url(#pa6dd7a7987)" style="fill: #e41a1c; opacity: 0.6"/>
   </g>
   <g id="patch_26">
    <path d="M 87.36 97.447283 
L 183.562486 97.447283 
L 183.562486 95.612028 
L 87.36 95.612028 
z
" clip-path="url(#pa6dd7a7987)" style="fill: #e41a1c; opacity: 0.6"/>
   </g>
   <g id="patch_27">
    <path d="M 87.36 99.741352 
L 181.704589 99.741352 
L 181.704589 97.906097 
L 87.36 97.906097 
z
" clip-path="url(#pa6dd7a7987)" style="fill: #e41a1c; opacity: 0.6"/>
   </g>
   <g id="patch_28">
    <path d="M 87.36 102.035421 
L 179.682599 102.035421 
L 179.682599 100.200166 
L 87.36 100.200166 
z
" clip-path="url(#pa6dd7a7987)" style="fill: #e41a1c; opacity: 0.6"/>
   </g>
   <g id="patch_29">
    <path d="M 87.36 104.32949 
L 178.258025 104.32949 
L 178.258025 102.494234 
L 87.36 102.494234 
z
" clip-path="url(#pa6dd7a7987)" style="fill: #e41a1c; opacity: 0.6"/>
   </g>
   <g id="patch_30">
    <path d="M 87.36 106.623559 
L 176.584272 106.623559 
L 176.584272 104.788303 
L 87.36 104.788303 
z
" clip-path="url(#pa6dd7a7987)" style="fill: #e41a1c; opacity: 0.6"/>
   </g>
   <g id="patch_31">
    <path d="M 87.36 108.917628 
L 173.720598 108.917628 
L 173.720598 107.082372 
L 87.36 107.082372 
z
" clip-path="url(#pa6dd7a7987)" style="fill: #e41a1c; opacity: 0.6"/>
   </g>
   <g id="patch_32">
    <path d="M 87.36 111.211697 
L 173.112765 111.211697 
L 173.112765 109.376441 
L 87.36 109.376441 
z
" clip-path="url(#pa6dd7a7987)" style="fill: #e41a1c; opacity: 0.6"/>
   </g>
   <g id="patch_33">
    <path d="M 87.36 113.505766 
L 172.341031 113.505766 
L 172.341031 111.67051 
L 87.36 111.67051 
z
" clip-path="url(#pa6dd7a7987)" style="fill: #e41a1c; opacity: 0.6"/>
   </g>
   <g id="patch_34">
    <path d="M 87.36 115.799834 
L 171.945205 115.799834 
L 171.945205 113.964579 
L 87.36 113.964579 
z
" clip-path="url(#pa6dd7a7987)" style="fill: #e41a1c; opacity: 0.6"/>
   </g>
   <g id="patch_35">
    <path d="M 87.36 118.093903 
L 168.051143 118.093903 
L 168.051143 116.258648 
L 87.36 116.258648 
z
" clip-path="url(#pa6dd7a7987)" style="fill: #e41a1c; opacity: 0.6"/>
   </g>
   <g id="patch_36">
    <path d="M 87.36 120.387972 
L 166.15084 120.387972 
L 166.15084 118.552717 
L 87.36 118.552717 
z
" clip-path="url(#pa6dd7a7987)" style="fill: #e41a1c; opacity: 0.6"/>
   </g>
   <g id="patch_37">
    <path d="M 87.36 122.682041 
L 163.35583 122.682041 
L 163.35583 120.846786 
L 87.36 120.846786 
z
" clip-path="url(#pa6dd7a7987)" style="fill: #e41a1c; opacity: 0.6"/>
   </g>
   <g id="patch_38">
    <path d="M 87.36 124.97611 
L 162.336122 124.97611 
L 162.336122 123.140855 
L 87.36 123.140855 
z
" clip-path="url(#pa6dd7a7987)" style="fill: #e41a1c; opacity: 0.6"/>
   </g>
   <g id="patch_39">
    <path d="M 87.36 127.270179 
L 162.070004 127.270179 
L 162.070004 125.434924 
L 87.36 125.434924 
z
" clip-path="url(#pa6dd7a7987)" style="fill: #e41a1c; opacity: 0.6"/>
   </g>
   <g id="patch_40">
    <path d="M 87.36 129.564248 
L 160.956233 129.564248 
L 160.956233 127.728993 
L 87.36 127.728993 
z
" clip-path="url(#pa6dd7a7987)" style="fill: #e41a1c; opacity: 0.6"/>
   </g>
   <g id="patch_41">
    <path d="M 87.36 131.858317 
L 160.227743 131.858317 
L 160.227743 130.023062 
L 87.36 130.023062 
z
" clip-path="url(#pa6dd7a7987)" style="fill: #e41a1c; opacity: 0.6"/>
   </g>
   <g id="patch_42">
    <path d="M 87.36 134.152386 
L 153.359182 134.152386 
L 153.359182 132.317131 
L 87.36 132.317131 
z
" clip-path="url(#pa6dd7a7987)" style="fill: #e41a1c; opacity: 0.6"/>
   </g>
   <g id="patch_43">
    <path d="M 87.36 136.446455 
L 152.086361 136.446455 
L 152.086361 134.6112 
L 87.36 134.6112 
z
" clip-path="url(#pa6dd7a7987)" style="fill: #e41a1c; opacity: 0.6"/>
   </g>
   <g id="patch_44">
    <path d="M 87.36 138.740524 
L 151.952094 138.740524 
L 151.952094 136.905269 
L 87.36 136.905269 
z
" clip-path="url(#pa6dd7a7987)" style="fill: #e41a1c; opacity: 0.6"/>
   </g>
   <g id="patch_45">
    <path d="M 87.36 141.034593 
L 149.984855 141.034593 
L 149.984855 139.199338 
L 87.36 139.199338 
z
" clip-path="url(#pa6dd7a7987)" style="fill: #e41a1c; opacity: 0.6"/>
   </g>
   <g id="patch_46">
    <path d="M 87.36 143.328662 
L 148.619146 143.328662 
L 148.619146 141.493407 
L 87.36 141.493407 
z
" clip-path="url(#pa6dd7a7987)" style="fill: #e41a1c; opacity: 0.6"/>
   </g>
   <g id="patch_47">
    <path d="M 87.36 145.622731 
L 148.283033 145.622731 
L 148.283033 143.787476 
L 87.36 143.787476 
z
" clip-path="url(#pa6dd7a7987)" style="fill: #e41a1c; opacity: 0.6"/>
   </g>
   <g id="patch_48">
    <path d="M 87.36 147.9168 
L 148.18786 147.9168 
L 148.18786 146.081545 
L 87.36 146.081545 
z
" clip-path="url(#pa6dd7a7987)" style="fill: #e41a1c; opacity: 0.6"/>
   </g>
   <g id="patch_49">
    <path d="M 87.36 150.210869 
L 147.461113 150.210869 
L 147.461113 148.375614 
L 87.36 148.375614 
z
" clip-path="url(#pa6dd7a7987)" style="fill: #e41a1c; opacity: 0.6"/>
   </g>
   <g id="patch_50">
    <path d="M 87.36 152.504938 
L 146.749689 152.504938 
L 146.749689 150.669683 
L 87.36 150.669683 
z
" clip-path="url(#pa6dd7a7987)" style="fill: #e41a1c; opacity: 0.6"/>
   </g>
   <g id="patch_51">
    <path d="M 87.36 154.799007 
L 145.906878 154.799007 
L 145.906878 152.963752 
L 87.36 152.963752 
z
" clip-path="url(#pa6dd7a7987)" style="fill: #e41a1c; opacity: 0.6"/>
   </g>
   <g id="patch_52">
    <path d="M 87.36 157.093076 
L 145.672553 157.093076 
L 145.672553 155.257821 
L 87.36 155.257821 
z
" clip-path="url(#pa6dd7a7987)" style="fill: #e41a1c; opacity: 0.6"/>
   </g>
   <g id="patch_53">
    <path d="M 87.36 159.387145 
L 144.936106 159.387145 
L 144.936106 157.55189 
L 87.36 157.55189 
z
" clip-path="url(#pa6dd7a7987)" style="fill: #e41a1c; opacity: 0.6"/>
   </g>
   <g id="patch_54">
    <path d="M 87.36 161.681214 
L 143.882369 161.681214 
L 143.882369 159.845959 
L 87.36 159.845959 
z
" clip-path="url(#pa6dd7a7987)" style="fill: #e41a1c; opacity: 0.6"/>
   </g>
   <g id="patch_55">
    <path d="M 87.36 163.975283 
L 143.666146 163.975283 
L 143.666146 162.140028 
L 87.36 162.140028 
z
" clip-path="url(#pa6dd7a7987)" style="fill: #e41a1c; opacity: 0.6"/>
   </g>
   <g id="patch_56">
    <path d="M 87.36 166.269352 
L 143.183194 166.269352 
L 143.183194 164.434097 
L 87.36 164.434097 
z
" clip-path="url(#pa6dd7a7987)" style="fill: #e41a1c; opacity: 0.6"/>
   </g>
   <g id="patch_57">
    <path d="M 87.36 168.563421 
L 142.462307 168.563421 
L 142.462307 166.728166 
L 87.36 166.728166 
z
" clip-path="url(#pa6dd7a7987)" style="fill: #e41a1c; opacity: 0.6"/>
   </g>
   <g id="patch_58">
    <path d="M 87.36 170.85749 
L 141.267414 170.85749 
L 141.267414 169.022234 
L 87.36 169.022234 
z
" clip-path="url(#pa6dd7a7987)" style="fill: #e41a1c; opacity: 0.6"/>
   </g>
   <g id="patch_59">
    <path d="M 87.36 173.151559 
L 140.616645 173.151559 
L 140.616645 171.316303 
L 87.36 171.316303 
z
" clip-path="url(#pa6dd7a7987)" style="fill: #e41a1c; opacity: 0.6"/>
   </g>
   <g id="patch_60">
    <path d="M 87.36 175.445628 
L 138.257359 175.445628 
L 138.257359 173.610372 
L 87.36 173.610372 
z
" clip-path="url(#pa6dd7a7987)" style="fill: #e41a1c; opacity: 0.6"/>
   </g>
   <g id="patch_61">
    <path d="M 87.36 177.739697 
L 138.152503 177.739697 
L 138.152503 175.904441 
L 87.36 175.904441 
z
" clip-path="url(#pa6dd7a7987)" style="fill: #e41a1c; opacity: 0.6"/>
   </g>
   <g id="patch_62">
    <path d="M 87.36 180.033766 
L 138.05838 180.033766 
L 138.05838 178.19851 
L 87.36 178.19851 
z
" clip-path="url(#pa6dd7a7987)" style="fill: #e41a1c; opacity: 0.6"/>
   </g>
   <g id="patch_63">
    <path d="M 87.36 182.327834 
L 137.862681 182.327834 
L 137.862681 180.492579 
L 87.36 180.492579 
z
" clip-path="url(#pa6dd7a7987)" style="fill: #e41a1c; opacity: 0.6"/>
   </g>
   <g id="patch_64">
    <path d="M 87.36 184.621903 
L 137.743627 184.621903 
L 137.743627 182.786648 
L 87.36 182.786648 
z
" clip-path="url(#pa6dd7a7987)" style="fill: #e41a1c; opacity: 0.6"/>
   </g>
   <g id="patch_65">
    <path d="M 87.36 186.915972 
L 135.415616 186.915972 
L 135.415616 185.080717 
L 87.36 185.080717 
z
" clip-path="url(#pa6dd7a7987)" style="fill: #e41a1c; opacity: 0.6"/>
   </g>
   <g id="patch_66">
    <path d="M 87.36 189.210041 
L 135.0338 189.210041 
L 135.0338 187.374786 
L 87.36 187.374786 
z
" clip-path="url(#pa6dd7a7987)" style="fill: #e41a1c; opacity: 0.6"/>
   </g>
   <g id="patch_67">
    <path d="M 87.36 191.50411 
L 134.202122 191.50411 
L 134.202122 189.668855 
L 87.36 189.668855 
z
" clip-path="url(#pa6dd7a7987)" style="fill: #e41a1c; opacity: 0.6"/>
   </g>
   <g id="patch_68">
    <path d="M 87.36 193.798179 
L 133.417218 193.798179 
L 133.417218 191.962924 
L 87.36 191.962924 
z
" clip-path="url(#pa6dd7a7987)" style="fill: #e41a1c; opacity: 0.6"/>
   </g>
   <g id="patch_69">
    <path d="M 87.36 196.092248 
L 133.116925 196.092248 
L 133.116925 194.256993 
L 87.36 194.256993 
z
" clip-path="url(#pa6dd7a7987)" style="fill: #e41a1c; opacity: 0.6"/>
   </g>
   <g id="patch_70">
    <path d="M 87.36 198.386317 
L 131.66877 198.386317 
L 131.66877 196.551062 
L 87.36 196.551062 
z
" clip-path="url(#pa6dd7a7987)" style="fill: #e41a1c; opacity: 0.6"/>
   </g>
   <g id="patch_71">
    <path d="M 87.36 200.680386 
L 131.571309 200.680386 
L 131.571309 198.845131 
L 87.36 198.845131 
z
" clip-path="url(#pa6dd7a7987)" style="fill: #e41a1c; opacity: 0.6"/>
   </g>
   <g id="patch_72">
    <path d="M 87.36 202.974455 
L 130.617422 202.974455 
L 130.617422 201.1392 
L 87.36 201.1392 
z
" clip-path="url(#pa6dd7a7987)" style="fill: #e41a1c; opacity: 0.6"/>
   </g>
   <g id="patch_73">
    <path d="M 87.36 205.268524 
L 129.41696 205.268524 
L 129.41696 203.433269 
L 87.36 203.433269 
z
" clip-path="url(#pa6dd7a7987)" style="fill: #e41a1c; opacity: 0.6"/>
   </g>
   <g id="patch_74">
    <path d="M 87.36 207.562593 
L 128.808137 207.562593 
L 128.808137 205.727338 
L 87.36 205.727338 
z
" clip-path="url(#pa6dd7a7987)" style="fill: #e41a1c; opacity: 0.6"/>
   </g>
   <g id="patch_75">
    <path d="M 87.36 209.856662 
L 128.378588 209.856662 
L 128.378588 208.021407 
L 87.36 208.021407 
z
" clip-path="url(#pa6dd7a7987)" style="fill: #e41a1c; opacity: 0.6"/>
   </g>
   <g id="patch_76">
    <path d="M 87.36 212.150731 
L 127.456717 212.150731 
L 127.456717 210.315476 
L 87.36 210.315476 
z
" clip-path="url(#pa6dd7a7987)" style="fill: #e41a1c; opacity: 0.6"/>
   </g>
   <g id="patch_77">
    <path d="M 87.36 214.4448 
L 124.623744 214.4448 
L 124.623744 212.609545 
L 87.36 212.609545 
z
" clip-path="url(#pa6dd7a7987)" style="fill: #e41a1c; opacity: 0.6"/>
   </g>
   <g id="patch_78">
    <path d="M 87.36 216.738869 
L 123.087461 216.738869 
L 123.087461 214.903614 
L 87.36 214.903614 
z
" clip-path="url(#pa6dd7a7987)" style="fill: #e41a1c; opacity: 0.6"/>
   </g>
   <g id="patch_79">
    <path d="M 87.36 219.032938 
L 122.919393 219.032938 
L 122.919393 217.197683 
L 87.36 217.197683 
z
" clip-path="url(#pa6dd7a7987)" style="fill: #e41a1c; opacity: 0.6"/>
   </g>
   <g id="patch_80">
    <path d="M 87.36 221.327007 
L 121.539482 221.327007 
L 121.539482 219.491752 
L 87.36 219.491752 
z
" clip-path="url(#pa6dd7a7987)" style="fill: #e41a1c; opacity: 0.6"/>
   </g>
   <g id="patch_81">
    <path d="M 87.36 223.621076 
L 119.328291 223.621076 
L 119.328291 221.785821 
L 87.36 221.785821 
z
" clip-path="url(#pa6dd7a7987)" style="fill: #e41a1c; opacity: 0.6"/>
   </g>
   <g id="patch_82">
    <path d="M 87.36 225.915145 
L 118.871736 225.915145 
L 118.871736 224.07989 
L 87.36 224.07989 
z
" clip-path="url(#pa6dd7a7987)" style="fill: #e41a1c; opacity: 0.6"/>
   </g>
   <g id="patch_83">
    <path d="M 87.36 228.209214 
L 115.882023 228.209214 
L 115.882023 226.373959 
L 87.36 226.373959 
z
" clip-path="url(#pa6dd7a7987)" style="fill: #e41a1c; opacity: 0.6"/>
   </g>
   <g id="patch_84">
    <path d="M 87.36 230.503283 
L 114.864021 230.503283 
L 114.864021 228.668028 
L 87.36 228.668028 
z
" clip-path="url(#pa6dd7a7987)" style="fill: #e41a1c; opacity: 0.6"/>
   </g>
   <g id="patch_85">
    <path d="M 87.36 232.797352 
L 113.27796 232.797352 
L 113.27796 230.962097 
L 87.36 230.962097 
z
" clip-path="url(#pa6dd7a7987)" style="fill: #e41a1c; opacity: 0.6"/>
   </g>
   <g id="patch_86">
    <path d="M 87.36 235.091421 
L 112.024198 235.091421 
L 112.024198 233.256166 
L 87.36 233.256166 
z
" clip-path="url(#pa6dd7a7987)" style="fill: #e41a1c; opacity: 0.6"/>
   </g>
   <g id="patch_87">
    <path d="M 87.36 237.38549 
L 109.587072 237.38549 
L 109.587072 235.550234 
L 87.36 235.550234 
z
" clip-path="url(#pa6dd7a7987)" style="fill: #e41a1c; opacity: 0.6"/>
   </g>
   <g id="patch_88">
    <path d="M 87.36 239.679559 
L 109.324754 239.679559 
L 109.324754 237.844303 
L 87.36 237.844303 
z
" clip-path="url(#pa6dd7a7987)" style="fill: #e41a1c; opacity: 0.6"/>
   </g>
   <g id="patch_89">
    <path d="M 87.36 241.973628 
L 107.326143 241.973628 
L 107.326143 240.138372 
L 87.36 240.138372 
z
" clip-path="url(#pa6dd7a7987)" style="fill: #e41a1c; opacity: 0.6"/>
   </g>
   <g id="patch_90">
    <path d="M 87.36 244.267697 
L 105.780266 244.267697 
L 105.780266 242.432441 
L 87.36 242.432441 
z
" clip-path="url(#pa6dd7a7987)" style="fill: #e41a1c; opacity: 0.6"/>
   </g>
   <g id="patch_91">
    <path d="M 87.36 246.561766 
L 105.462625 246.561766 
L 105.462625 244.72651 
L 87.36 244.72651 
z
" clip-path="url(#pa6dd7a7987)" style="fill: #e41a1c; opacity: 0.6"/>
   </g>
   <g id="patch_92">
    <path d="M 87.36 248.855834 
L 105.221144 248.855834 
L 105.221144 247.020579 
L 87.36 247.020579 
z
" clip-path="url(#pa6dd7a7987)" style="fill: #e41a1c; opacity: 0.6"/>
   </g>
   <g id="patch_93">
    <path d="M 87.36 251.149903 
L 103.323084 251.149903 
L 103.323084 249.314648 
L 87.36 249.314648 
z
" clip-path="url(#pa6dd7a7987)" style="fill: #e41a1c; opacity: 0.6"/>
   </g>
   <g id="patch_94">
    <path d="M 87.36 253.443972 
L 101.648659 253.443972 
L 101.648659 251.608717 
L 87.36 251.608717 
z
" clip-path="url(#pa6dd7a7987)" style="fill: #e41a1c; opacity: 0.6"/>
   </g>
   <g id="patch_95">
    <path d="M 87.36 255.738041 
L 99.793846 255.738041 
L 99.793846 253.902786 
L 87.36 253.902786 
z
" clip-path="url(#pa6dd7a7987)" style="fill: #e41a1c; opacity: 0.6"/>
   </g>
   <g id="patch_96">
    <path d="M 87.36 258.03211 
L 99.778036 258.03211 
L 99.778036 256.196855 
L 87.36 256.196855 
z
" clip-path="url(#pa6dd7a7987)" style="fill: #e41a1c; opacity: 0.6"/>
   </g>
   <g id="patch_97">
    <path d="M 87.36 260.326179 
L 98.901036 260.326179 
L 98.901036 258.490924 
L 87.36 258.490924 
z
" clip-path="url(#pa6dd7a7987)" style="fill: #e41a1c; opacity: 0.6"/>
   </g>
   <g id="patch_98">
    <path d="M 87.36 262.620248 
L 98.429169 262.620248 
L 98.429169 260.784993 
L 87.36 260.784993 
z
" clip-path="url(#pa6dd7a7987)" style="fill: #e41a1c; opacity: 0.6"/>
   </g>
   <g id="patch_99">
    <path d="M 87.36 264.914317 
L 97.83481 264.914317 
L 97.83481 263.079062 
L 87.36 263.079062 
z
" clip-path="url(#pa6dd7a7987)" style="fill: #e41a1c; opacity: 0.6"/>
   </g>
   <g id="patch_100">
    <path d="M 87.36 267.208386 
L 95.848251 267.208386 
L 95.848251 265.373131 
L 87.36 265.373131 
z
" clip-path="url(#pa6dd7a7987)" style="fill: #e41a1c; opacity: 0.6"/>
   </g>
   <g id="patch_101">
    <path d="M 87.36 269.502455 
L 95.559196 269.502455 
L 95.559196 267.6672 
L 87.36 267.6672 
z
" clip-path="url(#pa6dd7a7987)" style="fill: #e41a1c; opacity: 0.6"/>
   </g>
   <g id="patch_102">
    <path d="M 87.36 271.796524 
L 91.038089 271.796524 
L 91.038089 269.961269 
L 87.36 269.961269 
z
" clip-path="url(#pa6dd7a7987)" style="fill: #e41a1c; opacity: 0.6"/>
   </g>
   <g id="patch_103">
    <path d="M 144.182221 274.090593 
L 147.903827 274.090593 
L 147.903827 272.255338 
L 144.182221 272.255338 
z
" clip-path="url(#pa6dd7a7987)" style="fill: #377eb8; opacity: 0.6"/>
   </g>
   <g id="patch_104">
    <path d="M 145.900828 276.384662 
L 154.815071 276.384662 
L 154.815071 274.549407 
L 145.900828 274.549407 
z
" clip-path="url(#pa6dd7a7987)" style="fill: #377eb8; opacity: 0.6"/>
   </g>
   <g id="patch_105">
    <path d="M 155.405066 278.678731 
L 158.908351 278.678731 
L 158.908351 276.843476 
L 155.405066 276.843476 
z
" clip-path="url(#pa6dd7a7987)" style="fill: #377eb8; opacity: 0.6"/>
   </g>
   <g id="patch_106">
    <path d="M 160.879568 280.9728 
L 161.903224 280.9728 
L 161.903224 279.137545 
L 160.879568 279.137545 
z
" clip-path="url(#pa6dd7a7987)" style="fill: #377eb8; opacity: 0.6"/>
   </g>
   <g id="patch_107">
    <path d="M 196.496916 283.266869 
L 414.72 283.266869 
L 414.72 281.431614 
L 196.496916 281.431614 
z
" clip-path="url(#pa6dd7a7987)" style="fill: #377eb8; opacity: 0.6"/>
   </g>
   <g id="patch_108">
    <path d="M 236.736125 285.560938 
L 241.230319 285.560938 
L 241.230319 283.725683 
L 236.736125 283.725683 
z
" clip-path="url(#pa6dd7a7987)" style="fill: #377eb8; opacity: 0.6"/>
   </g>
   <g id="patch_109">
    <path d="M 241.987576 287.855007 
L 384.96 287.855007 
L 384.96 286.019752 
L 241.987576 286.019752 
z
" clip-path="url(#pa6dd7a7987)" style="fill: #377eb8; opacity: 0.6"/>
   </g>
   <g id="patch_110">
    <path d="M 270.395156 290.149076 
L 296.222918 290.149076 
L 296.222918 288.313821 
L 270.395156 288.313821 
z
" clip-path="url(#pa6dd7a7987)" style="fill: #377eb8; opacity: 0.6"/>
   </g>
   <g id="patch_111">
    <path d="M 278.827635 292.443145 
L 373.375292 292.443145 
L 373.375292 290.60789 
L 278.827635 290.60789 
z
" clip-path="url(#pa6dd7a7987)" style="fill: #377eb8; opacity: 0.6"/>
   </g>
   <g id="patch_112">
    <path d="M 284.016136 294.737214 
L 349.989187 294.737214 
L 349.989187 292.901959 
L 284.016136 292.901959 
z
" clip-path="url(#pa6dd7a7987)" style="fill: #377eb8; opacity: 0.6"/>
   </g>
   <g id="patch_113">
    <path d="M 285.624828 297.031283 
L 383.101597 297.031283 
L 383.101597 295.196028 
L 285.624828 295.196028 
z
" clip-path="url(#pa6dd7a7987)" style="fill: #377eb8; opacity: 0.6"/>
   </g>
   <g id="patch_114">
    <path d="M 297.808231 299.325352 
L 308.965778 299.325352 
L 308.965778 297.490097 
L 297.808231 297.490097 
z
" clip-path="url(#pa6dd7a7987)" style="fill: #377eb8; opacity: 0.6"/>
   </g>
   <g id="patch_115">
    <path d="M 310.083767 301.619421 
L 338.088587 301.619421 
L 338.088587 299.784166 
L 310.083767 299.784166 
z
" clip-path="url(#pa6dd7a7987)" style="fill: #377eb8; opacity: 0.6"/>
   </g>
   <g id="patch_116">
    <path d="M 322.553395 303.91349 
L 327.658446 303.91349 
L 327.658446 302.078234 
L 322.553395 302.078234 
z
" clip-path="url(#pa6dd7a7987)" style="fill: #377eb8; opacity: 0.6"/>
   </g>
   <g id="patch_117">
    <path d="M 325.761929 306.207559 
L 331.260635 306.207559 
L 331.260635 304.372303 
L 325.761929 304.372303 
z
" clip-path="url(#pa6dd7a7987)" style="fill: #377eb8; opacity: 0.6"/>
   </g>
   <g id="patch_118">
    <path d="M 343.529848 308.501628 
L 344.48305 308.501628 
L 344.48305 306.666372 
L 343.529848 306.666372 
z
" clip-path="url(#pa6dd7a7987)" style="fill: #377eb8; opacity: 0.6"/>
   </g>
   <g id="patch_119">
    <path d="M 57.6 307.584 
L 57.6 41.472 
" style="fill: none; stroke: #ffffff; stroke-width: 1.25; stroke-linejoin: miter; stroke-linecap: square"/>
   </g>
   <g id="patch_120">
    <path d="M 414.72 307.584 
L 414.72 41.472 
" style="fill: none; stroke: #ffffff; stroke-width: 1.25; stroke-linejoin: miter; stroke-linecap: square"/>
   </g>
   <g id="patch_121">
    <path d="M 57.6 307.584 
L 414.72 307.584 
" style="fill: none; stroke: #ffffff; stroke-width: 1.25; stroke-linejoin: miter; stroke-linecap: square"/>
   </g>
   <g id="patch_122">
    <path d="M 57.6 41.472 
L 414.72 41.472 
" style="fill: none; stroke: #ffffff; stroke-width: 1.25; stroke-linejoin: miter; stroke-linecap: square"/>
   </g>
   <g id="text_14">
    <!-- Persistence barcode -->
    <g style="fill: #262626" transform="translate(169.198832 35.472) scale(0.16 -0.16)">
     <defs>
      <path id="CMR17-50" d="M 1267 2042 
L 2291 2042 
C 3117 2042 3718 2578 3718 3184 
C 3718 3791 3130 4352 2291 4352 
L 333 4352 
L 333 4186 
C 774 4186 845 4186 845 3899 
L 845 446 
C 845 160 774 160 333 160 
L 333 0 
C 518 0 858 0 1056 0 
C 1254 0 1594 0 1779 0 
L 1779 160 
C 1338 160 1267 160 1267 446 
L 1267 2042 
z
M 1254 2176 
L 1254 3938 
C 1254 4155 1267 4186 1523 4186 
L 2170 4186 
C 2995 4186 3232 3714 3232 3184 
C 3232 2604 2950 2176 2170 2176 
L 1254 2176 
z
" transform="scale(0.015625)"/>
      <path id="CMR17-65" d="M 2438 1472 
C 2464 1498 2464 1511 2464 1576 
C 2464 2238 2118 2816 1389 2816 
C 710 2816 173 2169 173 1383 
C 173 551 781 -64 1459 -64 
C 2176 -64 2458 607 2458 740 
C 2458 784 2419 784 2406 784 
C 2362 784 2355 771 2330 696 
C 2189 265 1837 51 1504 51 
C 1229 51 954 203 781 480 
C 582 803 582 1176 582 1472 
L 2438 1472 
z
M 589 1568 
C 634 2505 1126 2714 1382 2714 
C 1818 2714 2112 2297 2118 1568 
L 589 1568 
z
" transform="scale(0.015625)"/>
      <path id="CMR17-72" d="M 960 1497 
C 960 2112 1222 2688 1702 2688 
C 1747 2688 1792 2682 1837 2662 
C 1837 2662 1696 2617 1696 2452 
C 1696 2298 1818 2234 1914 2234 
C 1990 2234 2131 2279 2131 2458 
C 2131 2663 1926 2790 1709 2790 
C 1222 2790 1011 2317 947 2093 
L 941 2093 
L 941 2790 
L 198 2720 
L 198 2554 
C 576 2554 634 2515 634 2208 
L 634 428 
C 634 184 608 153 198 153 
L 198 -13 
C 352 0 646 0 813 0 
C 998 0 1325 0 1498 -13 
L 1498 153 
C 1037 153 960 153 960 440 
L 960 1497 
z
" transform="scale(0.015625)"/>
      <path id="CMR17-73" d="M 1978 2697 
C 1978 2813 1971 2819 1933 2819 
C 1907 2819 1901 2813 1824 2717 
C 1805 2691 1747 2626 1728 2601 
C 1523 2819 1235 2819 1126 2819 
C 416 2819 160 2447 160 2076 
C 160 1498 813 1365 998 1325 
C 1402 1243 1542 1217 1677 1101 
C 1760 1025 1901 884 1901 654 
C 1901 384 1747 38 1158 38 
C 602 38 403 460 288 1021 
C 269 1110 269 1117 218 1117 
C 166 1117 160 1110 160 983 
L 160 63 
C 160 -51 166 -58 205 -58 
C 237 -58 243 -51 275 0 
C 314 57 410 211 448 276 
C 576 103 800 -64 1158 -64 
C 1792 -64 2131 283 2131 784 
C 2131 1112 1958 1285 1875 1362 
C 1683 1561 1459 1606 1190 1657 
C 838 1735 390 1825 390 2217 
C 390 2383 480 2737 1126 2737 
C 1811 2737 1850 2094 1862 1888 
C 1869 1856 1901 1849 1920 1849 
C 1978 1849 1978 1869 1978 1978 
L 1978 2697 
z
" transform="scale(0.015625)"/>
      <path id="CMR17-69" d="M 992 3909 
C 992 4049 877 4170 730 4170 
C 589 4170 467 4056 467 3909 
C 467 3769 582 3648 730 3648 
C 870 3648 992 3763 992 3909 
z
M 243 2706 
L 243 2541 
C 602 2541 653 2502 653 2197 
L 653 427 
C 653 184 627 153 218 153 
L 218 -13 
C 371 0 646 0 806 0 
C 960 0 1222 0 1370 -13 
L 1370 153 
C 992 153 979 191 979 420 
L 979 2776 
L 243 2706 
z
" transform="scale(0.015625)"/>
      <path id="CMR17-74" d="M 966 2560 
L 1862 2560 
L 1862 2725 
L 966 2725 
L 966 3904 
L 851 3904 
C 838 3245 614 2668 70 2668 
L 70 2560 
L 627 2560 
L 627 771 
C 627 650 627 -64 1370 -64 
C 1747 -64 1965 306 1965 777 
L 1965 1140 
L 1850 1140 
L 1850 783 
C 1850 344 1677 51 1408 51 
C 1222 51 966 178 966 758 
L 966 2560 
z
" transform="scale(0.015625)"/>
      <path id="CMR17-6e" d="M 2656 1933 
C 2656 2259 2592 2790 1837 2790 
C 1331 2790 1069 2400 973 2144 
L 966 2144 
L 966 2790 
L 211 2720 
L 211 2554 
C 589 2554 646 2515 646 2208 
L 646 428 
C 646 184 621 153 211 153 
L 211 -13 
C 365 0 646 0 813 0 
C 979 0 1267 0 1421 -13 
L 1421 153 
C 1011 153 986 178 986 428 
L 986 1658 
C 986 2247 1344 2688 1792 2688 
C 2266 2688 2317 2266 2317 1958 
L 2317 428 
C 2317 184 2291 153 1882 153 
L 1882 -13 
C 2035 0 2317 0 2483 0 
C 2650 0 2938 0 3091 -13 
L 3091 153 
C 2682 153 2656 178 2656 428 
L 2656 1933 
z
" transform="scale(0.015625)"/>
      <path id="CMR17-63" d="M 2234 2240 
C 2112 2240 1933 2240 1933 2017 
C 1933 1838 2080 1787 2163 1787 
C 2208 1787 2394 1807 2394 2024 
C 2394 2467 1958 2803 1466 2803 
C 787 2803 211 2178 211 1363 
C 211 516 813 -64 1466 -64 
C 2259 -64 2458 677 2458 748 
C 2458 774 2451 793 2406 793 
C 2362 793 2355 787 2330 703 
C 2163 180 1798 51 1523 51 
C 1114 51 621 427 621 1369 
C 621 2338 1094 2688 1472 2688 
C 1722 2688 2093 2573 2234 2240 
z
" transform="scale(0.015625)"/>
      <path id="CMR17-62" d="M 960 4396 
L 198 4326 
L 198 4160 
C 576 4160 634 4122 634 3817 
L 634 -13 
L 749 -13 
L 934 441 
C 1120 141 1395 -64 1766 -64 
C 2406 -64 3053 500 3053 1370 
C 3053 2188 2477 2790 1830 2790 
C 1434 2790 1152 2579 960 2330 
L 960 4396 
z
M 973 2004 
C 973 2118 973 2138 1062 2272 
C 1312 2657 1670 2688 1792 2688 
C 1984 2688 2643 2585 2643 1376 
C 2643 108 1888 38 1734 38 
C 1536 38 1248 114 1043 486 
C 973 608 973 621 973 735 
L 973 2004 
z
" transform="scale(0.015625)"/>
      <path id="CMR17-61" d="M 2304 1653 
C 2304 2072 2304 2294 2035 2543 
C 1798 2752 1523 2816 1306 2816 
C 800 2816 435 2407 435 1971 
C 435 1728 627 1728 666 1728 
C 749 1728 896 1778 896 1954 
C 896 2112 774 2181 666 2181 
C 640 2181 608 2174 589 2168 
C 723 2592 1069 2714 1293 2714 
C 1613 2714 1965 2429 1965 1885 
L 1965 1600 
C 1587 1600 1133 1549 774 1357 
C 371 1133 256 813 256 570 
C 256 77 832 -64 1171 -64 
C 1523 -64 1850 139 1990 511 
C 2003 233 2182 -18 2464 -18 
C 2598 -18 2938 70 2938 567 
L 2938 920 
L 2822 920 
L 2822 562 
C 2822 178 2650 128 2566 128 
C 2304 128 2304 458 2304 738 
L 2304 1653 
z
M 1965 870 
C 1965 317 1568 38 1216 38 
C 896 38 646 275 646 570 
C 646 761 730 1100 1101 1305 
C 1408 1478 1760 1504 1965 1504 
L 1965 870 
z
" transform="scale(0.015625)"/>
      <path id="CMR17-6f" d="M 2758 1356 
C 2758 2176 2163 2816 1466 2816 
C 768 2816 173 2176 173 1356 
C 173 551 768 -64 1466 -64 
C 2163 -64 2758 551 2758 1356 
z
M 1466 51 
C 1165 51 909 230 762 480 
C 602 767 582 1126 582 1408 
C 582 1677 595 2010 762 2298 
C 890 2509 1139 2714 1466 2714 
C 1754 2714 1997 2554 2150 2330 
C 2349 2029 2349 1607 2349 1408 
C 2349 1158 2336 775 2163 467 
C 1984 173 1709 51 1466 51 
z
" transform="scale(0.015625)"/>
      <path id="CMR17-64" d="M 1869 4326 
L 1869 4160 
C 2246 4160 2304 4122 2304 3820 
L 2304 2345 
C 2278 2377 2016 2790 1498 2790 
C 845 2790 211 2208 211 1364 
C 211 525 806 -64 1434 -64 
C 1978 -64 2259 337 2291 380 
L 2291 -63 
L 3066 -63 
L 3066 128 
C 2688 128 2630 166 2630 473 
L 2630 4396 
L 1869 4326 
z
M 2291 755 
C 2291 563 2176 390 2029 262 
C 1811 70 1594 38 1472 38 
C 1286 38 621 134 621 1356 
C 621 2612 1363 2688 1530 2688 
C 1824 2688 2061 2522 2208 2291 
C 2291 2157 2291 2138 2291 2023 
L 2291 755 
z
" transform="scale(0.015625)"/>
     </defs>
     <use xlink:href="#CMR17-50" transform="scale(0.996264)"/>
     <use xlink:href="#CMR17-65" transform="translate(59.983847 0) scale(0.996264)"/>
     <use xlink:href="#CMR17-72" transform="translate(100.469507 0) scale(0.996264)"/>
     <use xlink:href="#CMR17-73" transform="translate(135.750275 0) scale(0.996264)"/>
     <use xlink:href="#CMR17-69" transform="translate(171.551612 0) scale(0.996264)"/>
     <use xlink:href="#CMR17-73" transform="translate(196.422671 0) scale(0.996264)"/>
     <use xlink:href="#CMR17-74" transform="translate(232.224009 0) scale(0.996264)"/>
     <use xlink:href="#CMR17-65" transform="translate(267.504776 0) scale(0.996264)"/>
     <use xlink:href="#CMR17-6e" transform="translate(307.990437 0) scale(0.996264)"/>
     <use xlink:href="#CMR17-63" transform="translate(358.885807 0) scale(0.996264)"/>
     <use xlink:href="#CMR17-65" transform="translate(399.371467 0) scale(0.996264)"/>
     <use xlink:href="#CMR17-62" transform="translate(469.933094 0) scale(0.996264)"/>
     <use xlink:href="#CMR17-61" transform="translate(520.828464 0) scale(0.996264)"/>
     <use xlink:href="#CMR17-72" transform="translate(566.518941 0) scale(0.996264)"/>
     <use xlink:href="#CMR17-63" transform="translate(601.799709 0) scale(0.996264)"/>
     <use xlink:href="#CMR17-6f" transform="translate(642.285369 0) scale(0.996264)"/>
     <use xlink:href="#CMR17-64" transform="translate(690.578285 0) scale(0.996264)"/>
     <use xlink:href="#CMR17-65" transform="translate(741.473655 0) scale(0.996264)"/>
    </g>
   </g>
   <g id="legend_1">
    <g id="patch_123">
     <path d="M 366.340533 302.084 
L 407.02 302.084 
Q 409.22 302.084 409.22 299.884 
L 409.22 270.322211 
Q 409.22 268.122211 407.02 268.122211 
L 366.340533 268.122211 
Q 364.140533 268.122211 364.140533 270.322211 
L 364.140533 299.884 
Q 364.140533 302.084 366.340533 302.084 
z
" style="fill: #eaeaf2; opacity: 0.8; stroke: #cccccc; stroke-linejoin: miter"/>
    </g>
    <g id="patch_124">
     <path d="M 368.540533 280.222211 
L 390.540533 280.222211 
L 390.540533 272.522211 
L 368.540533 272.522211 
z
" style="fill: #e41a1c; stroke: #e41a1c; stroke-linejoin: miter"/>
    </g>
    <g id="text_15">
     <!-- 0 -->
     <g style="fill: #262626" transform="translate(399.340533 280.222211) scale(0.11 -0.11)">
      <use xlink:href="#CMR17-30" transform="scale(0.996264)"/>
     </g>
    </g>
    <g id="patch_125">
     <path d="M 368.540533 295.553105 
L 390.540533 295.553105 
L 390.540533 287.853105 
L 368.540533 287.853105 
z
" style="fill: #377eb8; stroke: #377eb8; stroke-linejoin: miter"/>
    </g>
    <g id="text_16">
     <!-- 1 -->
     <g style="fill: #262626" transform="translate(399.340533 295.553105) scale(0.11 -0.11)">
      <use xlink:href="#CMR17-31" transform="scale(0.996264)"/>
     </g>
    </g>
   </g>
  </g>
 </g>
 <defs>
  <clipPath id="pa6dd7a7987">
   <rect x="57.6" y="41.472" width="357.12" height="266.112"/>
  </clipPath>
 </defs>
</svg>
